<svg id="svg" version="1.1" xmlns="http://www.w3.org/2000/svg" xmlns:xlink="http://www.w3.org/1999/xlink" width="400" height="400" viewBox="0, 0, 400,400"><g id="svgg"><path id="path0" d="M220.585 227.574 C 219.476 227.749,218.021 228.175,217.351 228.522 C 216.681 228.868,214.914 229.434,213.425 229.780 C 211.935 230.125,210.274 230.756,209.733 231.181 C 209.192 231.606,208.086 232.172,207.275 232.437 C 206.464 232.702,205.174 233.433,204.409 234.060 C 203.644 234.687,202.794 235.200,202.520 235.200 C 201.948 235.200,200.533 236.463,195.900 241.110 C 191.411 245.612,190.472 246.736,189.641 248.600 C 189.248 249.480,188.630 250.446,188.266 250.747 C 187.903 251.047,187.411 252.037,187.172 252.947 C 186.934 253.856,186.324 255.230,185.817 256.000 C 185.248 256.865,184.711 258.600,184.412 260.541 C 184.146 262.269,183.585 264.682,183.164 265.904 C 182.075 269.069,182.069 277.531,183.154 280.285 C 183.569 281.338,184.109 283.492,184.353 285.072 C 184.839 288.205,185.334 289.788,185.945 290.166 C 186.161 290.300,186.645 291.352,187.019 292.505 C 187.392 293.657,188.106 295.050,188.604 295.600 C 189.102 296.150,189.631 297.001,189.779 297.491 C 189.927 297.981,190.667 299.123,191.424 300.029 C 192.181 300.935,192.800 301.933,192.800 302.246 C 192.800 302.560,193.250 303.022,193.800 303.273 C 194.350 303.523,194.800 303.883,194.800 304.073 C 194.800 304.514,199.142 308.800,199.589 308.800 C 199.773 308.800,200.678 309.430,201.600 310.200 C 202.522 310.970,203.537 311.600,203.856 311.600 C 204.175 311.600,204.911 312.075,205.492 312.656 C 206.073 313.236,207.437 313.946,208.523 314.233 C 209.610 314.519,210.882 315.112,211.350 315.549 C 211.872 316.038,213.281 316.529,215.000 316.821 C 216.540 317.082,218.610 317.679,219.600 318.148 C 222.370 319.459,234.812 319.429,237.867 318.103 C 239.004 317.610,241.139 317.035,242.611 316.827 C 244.311 316.586,245.820 316.086,246.744 315.457 C 247.545 314.912,248.959 314.244,249.886 313.974 C 250.813 313.703,251.969 313.058,252.455 312.541 C 252.942 312.023,253.575 311.600,253.862 311.600 C 254.715 311.600,262.727 304.500,263.811 302.783 C 264.360 301.912,264.984 301.200,265.197 301.200 C 265.410 301.200,265.940 300.502,266.375 299.649 C 266.810 298.796,267.409 298.005,267.707 297.891 C 268.005 297.777,268.467 296.953,268.735 296.060 C 269.002 295.167,269.640 293.933,270.152 293.318 C 271.012 292.286,272.579 286.853,272.144 286.413 C 272.043 286.310,270.286 286.130,268.240 286.013 C 262.764 285.699,263.200 286.913,263.200 271.980 L 263.200 259.258 264.254 258.429 C 265.104 257.761,265.879 257.600,268.254 257.600 L 271.200 257.600 271.200 255.893 C 271.200 254.762,270.882 253.715,270.259 252.793 C 269.742 252.027,269.105 250.747,268.844 249.948 C 268.583 249.150,268.002 248.164,267.552 247.756 C 267.102 247.349,266.480 246.408,266.169 245.664 C 265.858 244.920,265.138 243.836,264.569 243.256 C 264.000 242.675,262.565 241.210,261.380 240.000 C 257.990 236.537,256.464 235.200,255.903 235.200 C 255.616 235.200,254.756 234.694,253.991 234.077 C 253.226 233.459,251.759 232.639,250.732 232.256 C 249.704 231.872,248.655 231.307,248.401 231.001 C 248.147 230.695,246.917 230.244,245.669 230.000 C 244.421 229.756,242.320 229.087,241.000 228.513 C 238.417 227.390,225.507 226.796,220.585 227.574 M237.000 248.749 C 237.880 249.270,239.448 249.950,240.485 250.260 C 241.522 250.569,242.602 251.149,242.885 251.548 C 243.168 251.947,243.840 252.507,244.378 252.793 C 246.260 253.792,250.572 258.827,251.276 260.847 C 251.529 261.571,252.139 262.759,252.632 263.485 C 254.370 266.047,254.501 279.116,252.815 281.752 C 251.910 283.166,251.476 284.053,250.805 285.858 C 250.211 287.456,245.016 292.866,243.187 293.792 C 242.424 294.178,241.436 294.825,240.992 295.230 C 240.548 295.635,239.052 296.231,237.667 296.553 C 236.283 296.876,234.666 297.464,234.075 297.860 C 232.532 298.892,225.451 298.919,223.893 297.898 C 223.304 297.512,221.726 296.940,220.386 296.628 C 219.046 296.315,217.495 295.731,216.938 295.330 C 216.382 294.928,215.424 294.318,214.810 293.974 C 213.225 293.084,207.724 287.421,207.376 286.321 C 207.216 285.814,206.675 284.860,206.175 284.200 C 205.617 283.465,205.030 281.758,204.659 279.796 C 204.326 278.034,203.861 276.087,203.627 275.470 C 203.036 273.916,203.103 271.312,203.784 269.357 C 204.099 268.454,204.569 266.496,204.828 265.007 C 205.105 263.419,205.608 261.992,206.046 261.554 C 206.456 261.144,207.166 260.013,207.622 259.042 C 208.988 256.137,214.684 251.189,217.887 250.125 C 218.939 249.775,220.108 249.223,220.484 248.898 C 222.390 247.247,234.287 247.140,237.000 248.749 " stroke="none" fill="#f7f8f9" fill-rule="evenodd"></path><path id="path1" d="M247.422 31.564 C 246.881 32.441,247.630 33.169,248.353 32.469 C 248.807 32.030,248.899 31.699,248.622 31.506 C 248.053 31.110,247.692 31.127,247.422 31.564 M244.782 34.834 C 244.147 36.021,244.469 36.097,245.319 34.961 C 245.714 34.432,245.855 34.000,245.633 34.000 C 245.410 34.000,245.027 34.375,244.782 34.834 M151.905 41.483 C 152.402 41.579,153.122 41.575,153.505 41.475 C 153.887 41.375,153.480 41.296,152.600 41.301 C 151.720 41.305,151.407 41.387,151.905 41.483 M139.100 44.629 C 138.495 44.957,138.000 45.405,138.000 45.625 C 138.000 45.844,138.540 45.625,139.200 45.137 C 140.917 43.867,140.877 43.665,139.100 44.629 M337.200 79.481 C 337.200 79.690,337.669 80.297,338.243 80.830 C 339.153 81.676,339.268 81.704,339.143 81.048 C 338.994 80.264,337.200 78.818,337.200 79.481 M286.800 186.351 C 286.800 186.735,288.138 188.000,288.546 188.000 C 288.701 188.000,288.647 187.661,288.425 187.247 C 288.002 186.456,286.800 185.793,286.800 186.351 M110.800 213.138 C 110.800 213.590,112.354 214.979,112.593 214.740 C 112.858 214.475,111.635 212.800,111.177 212.800 C 110.970 212.800,110.800 212.952,110.800 213.138 M216.400 214.018 C 213.299 214.219,211.133 214.582,209.751 215.132 C 208.625 215.581,206.249 216.147,204.473 216.390 C 202.527 216.656,200.559 217.211,199.522 217.785 C 198.575 218.309,196.766 218.925,195.503 219.155 C 194.239 219.384,192.693 219.951,192.066 220.414 C 191.440 220.877,190.138 221.434,189.173 221.651 C 188.208 221.867,186.619 222.575,185.641 223.222 C 184.663 223.870,183.619 224.400,183.322 224.400 C 183.024 224.400,181.865 225.030,180.745 225.800 C 179.626 226.570,178.398 227.200,178.017 227.200 C 177.636 227.200,176.981 227.579,176.562 228.043 C 176.143 228.506,175.080 229.251,174.200 229.697 C 173.320 230.144,172.091 230.935,171.469 231.455 C 170.847 231.975,170.149 232.400,169.918 232.400 C 169.686 232.400,168.818 232.985,167.988 233.700 C 166.101 235.325,163.312 237.337,162.008 238.013 C 161.462 238.296,160.684 238.948,160.279 239.464 C 159.873 239.979,159.343 240.400,159.099 240.400 C 158.856 240.400,158.089 240.985,157.395 241.700 C 156.701 242.415,154.258 244.697,151.967 246.771 C 149.675 248.845,145.190 253.186,142.000 256.418 C 136.616 261.874,134.930 263.693,132.090 267.113 C 131.491 267.835,130.488 268.958,129.863 269.608 C 128.100 271.441,127.992 273.505,129.570 275.228 C 130.260 275.983,131.495 277.480,132.313 278.556 C 133.131 279.632,134.385 281.085,135.100 281.784 C 135.815 282.484,136.400 283.184,136.400 283.340 C 136.400 283.495,138.155 285.398,140.300 287.568 C 142.445 289.739,145.119 292.479,146.242 293.657 C 147.365 294.836,149.525 296.932,151.042 298.317 C 152.559 299.701,155.060 301.995,156.600 303.416 C 158.140 304.836,159.524 305.999,159.676 305.999 C 159.827 306.000,160.770 306.675,161.770 307.500 C 162.771 308.325,164.418 309.630,165.431 310.400 C 166.443 311.170,167.746 312.295,168.325 312.900 C 168.904 313.505,169.594 314.000,169.858 314.000 C 170.123 314.000,171.149 314.618,172.138 315.374 C 173.128 316.129,174.492 317.034,175.169 317.384 C 175.846 317.734,176.400 318.202,176.400 318.424 C 176.400 318.647,177.165 319.164,178.100 319.575 C 179.035 319.985,180.420 320.789,181.178 321.361 C 181.935 321.932,182.765 322.400,183.022 322.400 C 183.278 322.400,184.188 322.876,185.044 323.457 C 185.900 324.039,187.354 324.772,188.275 325.086 C 189.197 325.401,190.155 325.905,190.405 326.207 C 190.656 326.508,192.003 327.135,193.400 327.600 C 194.797 328.065,196.148 328.696,196.402 329.002 C 196.656 329.309,198.245 329.864,199.932 330.235 C 201.620 330.606,203.464 331.235,204.031 331.633 C 204.598 332.031,206.710 332.621,208.725 332.946 C 210.739 333.270,212.976 333.832,213.694 334.194 C 217.199 335.960,243.402 336.176,247.522 334.472 C 248.689 333.989,251.362 333.318,253.461 332.980 C 255.698 332.620,257.718 332.053,258.339 331.611 C 258.923 331.196,260.528 330.577,261.908 330.235 C 263.287 329.893,264.907 329.265,265.508 328.840 C 266.108 328.414,267.615 327.782,268.857 327.435 C 270.098 327.087,271.209 326.554,271.326 326.250 C 271.442 325.945,272.372 325.412,273.391 325.065 C 274.411 324.717,275.789 323.976,276.453 323.417 C 277.118 322.857,277.877 322.400,278.141 322.400 C 278.405 322.400,279.580 321.680,280.751 320.800 C 281.922 319.920,283.088 319.200,283.341 319.200 C 283.595 319.200,284.312 318.660,284.935 318.000 C 285.558 317.340,286.321 316.800,286.631 316.800 C 286.940 316.800,287.420 316.425,287.697 315.967 C 287.973 315.508,288.920 314.764,289.800 314.312 C 291.692 313.341,293.581 311.895,295.301 310.100 C 295.986 309.385,296.703 308.800,296.893 308.800 C 297.661 308.800,313.007 292.882,315.600 289.396 C 316.949 287.582,318.159 286.006,320.818 282.600 C 324.729 277.589,325.814 274.176,324.026 272.511 C 323.601 272.114,322.868 270.892,322.398 269.795 C 321.928 268.698,321.286 267.656,320.971 267.480 C 320.657 267.304,320.105 266.584,319.744 265.880 C 319.383 265.176,318.745 264.240,318.327 263.800 C 317.908 263.360,316.462 261.584,315.112 259.852 C 312.109 256.000,304.737 248.541,300.932 245.505 C 299.385 244.271,297.237 242.533,296.159 241.644 C 291.646 237.921,290.483 237.070,287.356 235.206 C 286.232 234.535,284.989 233.630,284.594 233.193 C 284.199 232.757,283.648 232.400,283.369 232.400 C 283.090 232.400,282.331 231.954,281.682 231.408 C 281.034 230.862,279.713 230.077,278.746 229.663 C 277.779 229.248,276.752 228.625,276.464 228.277 C 276.175 227.929,275.073 227.357,274.016 227.005 C 272.959 226.654,271.787 226.028,271.411 225.613 C 271.036 225.198,270.027 224.740,269.170 224.595 C 268.312 224.450,266.933 223.870,266.105 223.305 C 265.277 222.741,263.615 222.020,262.412 221.704 C 261.209 221.388,259.707 220.761,259.075 220.311 C 258.443 219.861,256.700 219.259,255.200 218.974 C 253.701 218.688,251.765 218.092,250.898 217.650 C 250.031 217.208,247.720 216.638,245.761 216.384 C 243.802 216.130,241.427 215.586,240.483 215.176 C 237.325 213.804,227.199 213.317,216.400 214.018 M237.741 225.975 C 241.224 226.244,242.313 226.481,243.255 227.177 C 243.900 227.655,245.522 228.238,246.858 228.473 C 248.554 228.772,249.682 229.248,250.596 230.050 C 251.316 230.683,252.242 231.201,252.653 231.201 C 253.527 231.203,256.000 232.630,256.000 233.133 C 256.000 233.323,256.720 233.761,257.600 234.107 C 258.556 234.483,259.200 234.998,259.200 235.388 C 259.200 235.756,259.811 236.296,260.600 236.626 C 261.370 236.948,262.000 237.487,262.000 237.824 C 262.000 238.161,262.537 238.744,263.194 239.119 C 263.851 239.493,264.555 240.278,264.760 240.862 C 264.965 241.447,265.488 242.037,265.923 242.176 C 266.358 242.314,266.938 242.966,267.211 243.626 C 267.484 244.286,268.211 245.459,268.827 246.233 C 269.442 247.008,270.062 248.174,270.205 248.824 C 270.348 249.474,270.796 250.184,271.200 250.400 C 272.734 251.221,273.579 257.044,272.379 258.525 C 271.770 259.277,271.189 259.420,268.235 259.541 L 264.800 259.682 264.800 272.041 L 264.800 284.400 268.100 284.402 C 274.526 284.407,276.584 286.014,273.984 289.000 C 273.601 289.440,273.081 290.788,272.828 291.995 C 272.569 293.231,271.959 294.629,271.432 295.195 C 270.918 295.748,270.273 296.897,270.001 297.750 C 269.716 298.640,269.192 299.382,268.770 299.492 C 268.365 299.598,267.837 300.281,267.597 301.010 C 267.356 301.739,266.868 302.575,266.513 302.868 C 266.157 303.161,265.401 304.041,264.831 304.825 C 263.888 306.123,262.652 307.284,258.142 311.107 C 257.294 311.825,256.150 312.526,255.600 312.665 C 255.050 312.803,254.150 313.437,253.600 314.074 C 252.920 314.861,252.088 315.305,251.000 315.459 C 249.997 315.601,249.091 316.048,248.573 316.658 C 247.937 317.406,247.105 317.726,244.973 318.043 C 243.448 318.270,241.706 318.807,241.103 319.237 C 237.997 321.452,219.408 321.487,216.428 319.284 C 215.816 318.832,214.319 318.348,213.038 318.187 C 211.556 318.002,210.362 317.580,209.667 316.995 C 209.075 316.497,207.783 315.859,206.795 315.578 C 205.808 315.296,204.550 314.656,204.000 314.154 C 203.450 313.653,202.331 312.963,201.514 312.622 C 200.697 312.281,199.841 311.650,199.611 311.221 C 199.382 310.792,198.700 310.206,198.097 309.919 C 197.494 309.631,196.827 309.002,196.615 308.520 C 196.403 308.038,195.840 307.546,195.365 307.427 C 194.890 307.308,194.284 306.685,194.018 306.043 C 193.752 305.401,193.195 304.787,192.780 304.679 C 192.365 304.570,191.724 303.847,191.354 303.072 C 190.984 302.297,190.372 301.581,189.993 301.482 C 189.615 301.383,188.973 300.424,188.566 299.351 C 188.159 298.278,187.431 297.084,186.948 296.698 C 186.446 296.298,185.956 295.321,185.804 294.421 C 185.657 293.555,185.272 292.625,184.947 292.356 C 183.968 291.544,183.547 290.449,183.159 287.714 C 182.948 286.224,182.432 284.607,181.953 283.933 C 179.903 281.055,180.145 262.533,182.243 261.728 C 182.528 261.619,182.868 260.690,182.998 259.665 C 183.492 255.775,183.657 255.193,184.577 254.101 C 185.096 253.483,185.720 252.239,185.963 251.336 C 186.207 250.432,186.704 249.447,187.068 249.147 C 187.432 248.846,188.068 247.837,188.481 246.905 C 188.895 245.973,189.576 245.027,189.996 244.802 C 190.416 244.577,190.994 243.900,191.281 243.297 C 191.569 242.694,192.198 242.027,192.680 241.815 C 193.162 241.603,193.659 241.021,193.784 240.522 C 193.909 240.023,194.536 239.343,195.177 239.012 C 195.819 238.680,196.458 238.047,196.598 237.605 C 196.739 237.163,197.282 236.694,197.806 236.563 C 198.329 236.431,199.041 235.892,199.387 235.364 C 199.733 234.836,200.642 234.142,201.408 233.822 C 202.174 233.503,202.800 233.056,202.800 232.831 C 202.800 232.308,204.921 231.200,205.921 231.200 C 206.339 231.200,207.232 230.673,207.906 230.030 C 208.754 229.219,209.726 228.773,211.065 228.577 C 212.129 228.422,213.810 227.824,214.800 227.248 C 217.315 225.784,227.748 225.205,237.741 225.975 M223.116 250.035 C 222.519 250.480,220.958 251.063,219.645 251.331 C 217.867 251.693,217.040 252.096,216.400 252.909 C 215.928 253.509,215.299 254.000,215.003 254.000 C 214.706 254.000,213.685 254.837,212.732 255.860 C 211.779 256.883,210.505 258.215,209.900 258.820 C 209.295 259.426,208.800 260.173,208.800 260.482 C 208.800 260.790,208.263 261.773,207.607 262.665 C 205.298 265.804,205.136 280.018,207.381 282.395 C 207.904 282.948,208.535 284.173,208.786 285.118 C 209.099 286.301,209.548 286.976,210.230 287.286 C 210.774 287.534,211.321 288.141,211.444 288.634 C 211.568 289.128,212.196 289.750,212.840 290.017 C 213.509 290.294,214.112 290.908,214.248 291.451 C 214.397 292.042,214.780 292.400,215.263 292.400 C 216.301 292.400,218.275 293.447,218.713 294.230 C 219.080 294.885,222.044 295.441,227.400 295.859 C 232.266 296.239,239.561 294.860,239.594 293.554 C 239.597 293.419,240.379 293.011,241.332 292.647 C 242.285 292.283,243.578 291.449,244.207 290.793 C 244.835 290.137,245.584 289.600,245.869 289.600 C 246.155 289.600,246.652 288.972,246.973 288.204 C 247.293 287.436,248.000 286.364,248.542 285.821 C 249.085 285.279,249.653 284.242,249.805 283.517 C 249.957 282.793,250.616 281.354,251.270 280.320 L 252.458 278.439 252.329 272.484 C 252.205 266.765,252.157 266.466,251.118 264.964 C 250.523 264.104,249.919 262.655,249.774 261.744 C 249.583 260.538,249.255 259.971,248.567 259.658 C 248.047 259.421,247.506 258.765,247.364 258.200 C 247.222 257.634,246.600 256.910,245.981 256.590 C 245.363 256.271,244.747 255.662,244.612 255.238 C 244.477 254.814,243.849 254.286,243.215 254.065 C 242.581 253.844,241.866 253.298,241.627 252.851 C 241.321 252.278,240.478 251.898,238.767 251.562 C 237.433 251.299,235.716 250.660,234.953 250.142 C 232.995 248.813,224.851 248.739,223.116 250.035 M342.509 271.200 C 342.509 272.190,342.587 272.595,342.682 272.100 C 342.778 271.605,342.778 270.795,342.682 270.300 C 342.587 269.805,342.509 270.210,342.509 271.200 M342.493 284.400 C 342.493 285.170,342.575 285.485,342.676 285.100 C 342.776 284.715,342.776 284.085,342.676 283.700 C 342.575 283.315,342.493 283.630,342.493 284.400 M341.014 289.822 C 339.881 290.872,339.879 291.730,341.012 290.790 C 341.640 290.269,342.570 288.800,342.272 288.800 C 342.187 288.800,341.621 289.260,341.014 289.822 M95.418 295.498 C 95.098 296.330,95.763 296.980,96.485 296.541 C 96.954 296.256,96.933 296.090,96.354 295.531 C 95.728 294.925,95.639 294.922,95.418 295.498 M332.856 322.834 C 332.336 323.255,332.077 323.600,332.279 323.600 C 332.815 323.600,334.234 322.500,333.999 322.267 C 333.890 322.158,333.375 322.413,332.856 322.834 M124.000 338.567 C 124.000 338.988,125.205 340.128,125.421 339.912 C 125.522 339.811,125.244 339.402,124.802 339.002 C 124.361 338.603,124.000 338.407,124.000 338.567 M319.531 343.646 C 318.925 344.272,318.922 344.361,319.498 344.582 C 320.330 344.902,320.980 344.237,320.541 343.515 C 320.256 343.046,320.090 343.067,319.531 343.646 M164.800 372.338 C 164.800 372.836,166.366 374.167,166.636 373.898 C 166.763 373.771,166.492 373.292,166.033 372.833 C 165.137 371.937,164.800 371.802,164.800 372.338 M271.400 378.000 C 271.002 378.440,270.878 378.800,271.124 378.800 C 271.370 378.800,271.765 378.440,272.000 378.000 C 272.235 377.560,272.360 377.200,272.276 377.200 C 272.192 377.200,271.798 377.560,271.400 378.000 M194.246 383.376 C 194.653 384.437,196.229 385.237,196.229 384.382 C 196.229 383.984,196.108 383.734,195.960 383.825 C 195.812 383.916,195.468 383.723,195.196 383.396 C 194.565 382.635,193.957 382.623,194.246 383.376 M212.612 385.913 C 212.290 386.752,213.346 387.794,214.063 387.344 C 214.504 387.067,214.439 386.832,213.732 386.142 C 212.977 385.403,212.820 385.371,212.612 385.913 " stroke="none" fill="#226993" fill-rule="evenodd"></path><path id="path2" d="M202.495 12.582 C 201.996 12.809,201.667 13.199,201.763 13.448 C 202.103 14.335,201.007 14.800,198.578 14.800 C 196.511 14.800,192.294 16.768,194.279 16.806 C 195.167 16.823,193.243 17.589,192.300 17.594 C 191.695 17.597,191.221 17.735,191.247 17.900 C 191.273 18.065,191.251 18.335,191.197 18.500 C 191.033 19.006,190.902 19.579,190.850 20.024 C 190.822 20.257,190.638 20.347,190.441 20.225 C 190.050 19.984,188.231 21.694,188.150 22.379 C 188.123 22.610,188.078 23.430,188.050 24.200 C 188.011 25.285,187.831 25.600,187.249 25.600 C 185.111 25.600,185.262 19.674,185.228 105.324 C 185.213 144.002,185.065 175.575,184.900 175.487 C 184.507 175.277,183.196 176.663,183.500 176.967 C 183.628 177.095,183.298 177.217,182.767 177.239 C 181.701 177.281,178.432 177.539,176.675 177.718 C 176.057 177.781,175.388 178.095,175.190 178.416 C 174.975 178.764,174.762 155.064,174.661 119.599 C 174.473 53.407,174.551 58.800,173.775 58.800 C 173.459 58.800,173.200 58.511,173.200 58.157 C 173.200 57.750,172.980 57.599,172.600 57.745 C 172.133 57.924,171.989 57.623,171.950 56.387 C 171.863 53.619,171.811 53.337,171.274 52.689 C 170.985 52.341,170.400 52.123,169.974 52.205 C 169.330 52.329,169.200 52.123,169.200 50.977 C 169.200 49.670,168.565 49.235,167.336 49.700 C 167.190 49.755,166.859 49.170,166.600 48.400 C 166.238 47.321,165.862 46.953,164.965 46.796 C 163.992 46.626,163.798 46.398,163.786 45.410 C 163.770 44.119,163.928 44.166,159.276 44.052 C 157.991 44.021,157.249 43.844,157.397 43.605 C 157.543 43.369,157.362 43.316,156.951 43.474 C 156.429 43.675,156.322 43.581,156.510 43.090 C 156.686 42.633,156.588 42.507,156.180 42.663 C 155.839 42.794,155.600 42.648,155.600 42.309 C 155.600 41.665,155.695 41.682,151.685 41.592 C 149.756 41.549,148.546 41.709,148.108 42.064 C 147.543 42.522,147.496 42.513,147.786 42.000 C 147.973 41.670,147.681 41.850,147.136 42.400 C 146.592 42.950,146.195 43.505,146.255 43.632 C 146.315 43.760,145.427 43.912,144.282 43.970 C 140.843 44.145,140.200 44.249,140.200 44.633 C 140.200 45.296,138.480 46.737,137.530 46.870 C 136.512 47.012,134.804 48.422,135.074 48.897 C 135.167 49.060,135.059 49.510,134.834 49.897 C 134.512 50.449,134.420 50.471,134.406 50.000 C 134.394 49.615,134.282 49.556,134.094 49.834 C 133.932 50.073,133.440 50.473,133.000 50.722 C 132.210 51.170,132.210 51.176,132.989 51.188 C 133.733 51.199,133.727 51.235,132.889 51.823 C 132.271 52.256,132.000 52.854,132.000 53.787 C 132.000 54.832,131.847 55.107,131.308 55.028 C 129.291 54.732,129.408 50.072,129.293 135.171 C 129.188 212.243,129.156 215.467,128.484 215.052 C 127.951 214.723,127.193 215.400,127.006 216.370 C 126.791 217.485,126.026 218.463,125.582 218.189 C 125.402 218.078,125.125 218.198,124.966 218.455 C 124.785 218.748,124.850 218.816,125.138 218.638 C 125.392 218.481,125.600 218.543,125.600 218.776 C 125.600 219.009,125.351 219.200,125.047 219.200 C 124.474 219.200,124.015 220.369,124.005 221.850 C 124.001 222.473,123.679 222.764,122.800 222.940 C 121.694 223.161,121.599 223.314,121.587 224.890 C 121.577 226.305,121.490 226.494,121.087 225.985 C 120.819 225.647,120.297 225.433,119.927 225.510 C 119.057 225.689,118.450 224.523,118.277 222.340 C 118.164 220.908,117.984 220.577,117.263 220.471 C 116.706 220.389,116.178 219.844,115.814 218.971 C 115.374 217.918,115.004 217.600,114.220 217.600 C 113.321 217.600,113.200 217.434,113.200 216.200 C 113.200 214.979,113.074 214.800,112.214 214.800 C 111.091 214.800,110.573 213.992,110.460 212.062 C 110.374 210.592,109.756 209.766,108.572 209.538 C 108.060 209.439,107.800 209.059,107.800 208.409 C 107.800 207.648,107.511 207.347,106.500 207.057 C 105.421 206.748,105.200 206.489,105.200 205.532 C 105.200 204.572,105.000 204.340,104.000 204.140 C 103.340 204.008,102.786 203.697,102.769 203.450 C 102.753 203.202,102.652 202.640,102.546 202.200 C 102.440 201.760,102.334 201.175,102.310 200.900 C 102.286 200.625,102.106 200.400,101.910 200.400 C 101.713 200.400,101.656 200.232,101.783 200.028 C 101.909 199.823,101.830 199.542,101.607 199.404 C 101.383 199.266,101.200 199.382,101.200 199.663 C 101.200 199.944,100.797 199.673,100.305 199.061 C 99.813 198.450,99.408 197.646,99.405 197.275 C 99.402 196.904,99.130 196.592,98.800 196.581 C 97.847 196.551,96.462 195.505,96.667 194.969 C 96.968 194.185,96.022 193.818,92.800 193.468 C 92.107 193.392,91.804 193.120,91.813 192.579 C 91.832 191.504,90.537 190.832,88.400 190.808 C 86.430 190.786,85.353 190.323,85.755 189.672 C 85.897 189.443,85.802 189.125,85.545 188.966 C 85.234 188.774,85.175 188.866,85.368 189.238 C 85.528 189.547,85.368 189.440,85.013 189.000 C 83.979 187.722,68.690 187.852,68.550 189.140 C 68.523 189.393,68.478 189.870,68.450 190.200 C 68.411 190.671,67.800 190.800,65.600 190.800 C 63.820 190.800,62.800 190.961,62.800 191.243 C 62.800 191.486,62.574 191.599,62.298 191.493 C 62.022 191.387,61.533 191.582,61.211 191.926 C 60.693 192.481,60.707 192.521,61.334 192.281 C 61.758 192.118,61.944 192.167,61.797 192.405 C 61.663 192.622,61.293 192.800,60.976 192.800 C 60.659 192.800,60.400 193.001,60.400 193.247 C 60.400 193.492,59.995 193.620,59.500 193.530 C 58.446 193.339,57.335 194.319,57.520 195.277 C 57.615 195.775,57.310 195.978,56.324 196.073 C 55.154 196.185,54.985 196.351,54.875 197.500 C 54.775 198.530,54.567 198.801,53.875 198.806 C 52.844 198.813,51.929 199.323,52.026 199.837 C 52.255 201.051,51.932 201.600,50.987 201.600 C 50.431 201.600,49.901 201.825,49.811 202.100 C 49.654 202.582,49.262 205.645,49.220 206.724 C 49.209 207.012,49.032 207.144,48.828 207.017 C 48.623 206.891,48.340 206.973,48.200 207.200 C 48.060 207.427,47.749 207.492,47.511 207.345 C 47.261 207.191,47.191 207.261,47.345 207.511 C 47.492 207.749,47.436 208.054,47.221 208.187 C 46.499 208.633,46.711 229.080,47.439 229.360 C 47.785 229.492,47.924 229.799,47.760 230.065 C 47.564 230.381,47.683 230.454,48.122 230.285 C 48.888 229.991,49.332 230.577,49.413 231.987 C 49.510 233.683,50.042 235.597,50.432 235.650 C 50.634 235.678,51.025 235.722,51.300 235.750 C 51.575 235.778,51.856 236.376,51.924 237.081 C 52.002 237.892,52.313 238.445,52.771 238.591 C 53.887 238.945,54.785 240.139,54.941 241.474 C 55.115 242.972,55.532 243.689,56.045 243.372 C 56.708 242.962,57.600 244.039,57.600 245.249 C 57.600 246.261,57.745 246.400,58.800 246.400 C 59.786 246.400,60.000 246.564,60.000 247.320 C 60.000 248.492,60.708 249.200,61.880 249.200 C 62.705 249.200,62.800 249.388,62.800 251.013 C 62.800 252.255,62.989 252.898,63.400 253.055 C 63.730 253.182,64.000 253.531,64.000 253.830 C 64.000 254.140,64.248 254.280,64.576 254.154 C 64.984 253.997,65.279 254.408,65.591 255.567 C 65.950 256.901,66.206 257.200,66.990 257.200 C 67.780 257.200,67.971 257.430,68.075 258.500 C 68.185 259.643,68.357 259.815,69.500 259.925 C 70.685 260.040,70.800 260.170,70.800 261.402 C 70.800 262.145,70.983 262.866,71.207 263.004 C 71.430 263.142,71.539 263.378,71.449 263.528 C 71.358 263.677,71.535 264.032,71.842 264.316 C 72.149 264.599,72.400 264.712,72.400 264.567 C 72.400 264.421,72.670 264.526,73.000 264.800 C 73.330 265.074,73.600 265.816,73.600 266.449 C 73.600 267.183,73.817 267.618,74.200 267.650 C 74.530 267.678,75.017 267.723,75.282 267.750 C 75.547 267.778,75.867 268.250,75.993 268.800 C 76.135 269.422,76.710 270.016,77.511 270.372 C 78.414 270.773,78.800 271.215,78.800 271.849 C 78.800 272.346,78.992 272.872,79.227 273.017 C 79.462 273.162,79.575 273.489,79.477 273.743 C 79.380 273.996,79.582 274.467,79.926 274.789 C 80.480 275.306,80.522 275.294,80.289 274.687 C 80.144 274.309,80.101 274.000,80.194 274.000 C 80.445 274.000,81.526 276.479,81.676 277.400 C 81.762 277.924,82.172 278.242,82.863 278.323 C 83.714 278.421,83.970 278.713,84.177 279.817 C 84.318 280.571,84.561 281.170,84.717 281.147 C 86.322 280.911,86.800 281.244,86.800 282.600 C 86.800 283.681,86.964 284.000,87.520 284.000 C 88.462 284.000,89.193 284.753,88.926 285.449 C 88.810 285.752,88.914 286.000,89.157 286.000 C 89.401 286.000,89.603 286.405,89.606 286.900 C 89.614 288.081,90.170 288.919,91.028 289.045 C 91.810 289.160,92.465 289.997,92.246 290.602 C 92.074 291.077,92.790 291.783,93.500 291.840 C 94.669 291.934,94.800 292.047,94.800 292.972 C 94.800 293.532,95.392 294.570,96.200 295.427 C 96.970 296.244,97.623 297.067,97.650 297.256 C 97.678 297.445,97.723 298.003,97.750 298.495 C 97.781 299.050,98.104 299.445,98.600 299.538 C 99.663 299.735,100.447 300.401,100.161 300.863 C 99.790 301.464,100.818 302.400,101.849 302.400 C 102.631 302.400,102.800 302.606,102.800 303.554 C 102.800 304.332,103.114 304.914,103.763 305.339 C 104.819 306.031,105.916 307.927,105.784 308.831 C 105.672 309.590,106.408 310.217,107.400 310.209 C 107.840 310.205,108.224 310.472,108.254 310.801 C 108.283 311.130,108.350 311.580,108.401 311.800 C 108.453 312.020,108.458 312.380,108.414 312.600 C 108.370 312.820,108.467 312.867,108.630 312.703 C 108.793 312.540,109.168 312.607,109.463 312.852 C 109.758 313.097,110.000 313.164,110.000 313.000 C 110.000 312.836,110.259 312.917,110.576 313.180 C 110.893 313.443,111.043 313.945,110.908 314.295 C 110.746 314.717,110.822 314.834,111.132 314.642 C 111.389 314.483,111.600 314.547,111.600 314.785 C 111.600 315.023,112.040 315.418,112.579 315.663 C 113.186 315.940,113.603 316.506,113.679 317.154 C 113.772 317.960,114.052 318.229,114.900 318.327 C 115.904 318.442,116.000 318.600,116.004 320.127 C 116.012 322.829,116.453 324.800,117.052 324.800 C 117.354 324.800,117.600 324.991,117.600 325.224 C 117.600 325.457,117.375 325.518,117.100 325.359 C 116.810 325.192,116.740 325.224,116.933 325.436 C 117.117 325.636,117.457 325.800,117.690 325.800 C 118.268 325.800,118.711 326.714,118.994 328.487 C 119.232 329.975,120.273 331.460,120.747 330.986 C 120.885 330.848,120.639 330.459,120.199 330.121 C 119.732 329.763,119.650 329.582,120.000 329.686 C 120.832 329.932,121.587 331.549,121.594 333.100 C 121.599 334.263,121.721 334.400,122.747 334.400 C 123.898 334.400,124.129 334.907,124.488 338.218 C 124.535 338.650,125.696 339.877,125.890 339.700 C 126.362 339.270,126.800 339.805,126.800 340.810 C 126.800 341.824,126.987 342.057,127.954 342.251 C 128.818 342.424,129.198 342.798,129.467 343.741 C 129.740 344.701,130.083 345.030,130.913 345.127 C 131.816 345.232,132.000 345.449,132.000 346.408 C 132.000 347.412,132.184 347.598,133.400 347.826 C 134.511 348.035,134.800 348.276,134.800 348.996 C 134.800 349.783,135.872 351.181,136.261 350.900 C 136.748 350.548,137.495 350.912,137.493 351.500 C 137.487 353.003,137.638 353.200,138.800 353.200 C 139.786 353.200,140.000 353.364,140.000 354.120 C 140.000 355.292,140.708 356.000,141.880 356.000 C 142.636 356.000,142.800 356.214,142.800 357.200 C 142.800 358.176,142.968 358.401,143.700 358.406 C 144.968 358.415,145.498 358.845,145.660 360.000 C 145.763 360.735,146.077 361.032,146.844 361.121 C 147.445 361.191,148.100 361.639,148.388 362.177 C 148.900 363.135,150.134 363.973,151.277 364.141 C 151.630 364.193,152.179 364.451,152.496 364.714 C 152.814 364.978,153.202 365.065,153.358 364.909 C 153.514 364.752,153.524 364.931,153.380 365.307 C 153.119 365.989,154.646 366.919,155.661 366.695 C 155.899 366.643,156.153 366.957,156.225 367.393 C 156.297 367.829,156.547 368.249,156.781 368.327 C 157.014 368.405,157.123 368.601,157.023 368.764 C 156.922 368.926,157.776 369.101,158.920 369.152 C 161.258 369.257,161.477 369.389,161.666 370.800 C 161.786 371.694,162.011 371.813,163.790 371.926 C 165.997 372.065,166.800 372.524,166.800 373.649 C 166.800 374.145,167.106 374.419,167.700 374.456 C 168.195 374.486,169.243 374.546,170.029 374.589 C 171.577 374.672,172.520 375.082,172.233 375.547 C 171.731 376.359,172.938 377.013,175.285 377.200 C 177.536 377.379,177.800 377.491,177.800 378.267 C 177.800 379.659,178.568 379.907,183.057 379.967 C 185.313 379.997,185.533 380.079,185.758 380.973 C 186.069 382.213,186.606 382.368,191.367 382.589 C 194.898 382.752,196.661 383.243,196.238 383.945 C 195.604 384.995,196.685 385.125,206.696 385.202 C 213.819 385.258,215.548 385.491,214.345 386.234 C 214.080 386.398,213.983 386.351,214.121 386.128 C 214.255 385.911,214.106 385.733,213.789 385.733 C 213.356 385.733,213.322 385.865,213.652 386.262 C 213.893 386.553,214.231 386.704,214.403 386.598 C 214.575 386.492,214.819 386.674,214.946 387.002 C 215.072 387.331,215.371 387.600,215.611 387.600 C 215.854 387.600,215.914 387.378,215.747 387.100 C 215.545 386.764,215.669 386.781,216.127 387.152 C 217.358 388.151,232.400 387.935,232.400 386.918 C 232.400 386.633,232.591 386.400,232.824 386.400 C 233.057 386.400,233.119 386.625,232.962 386.900 C 232.805 387.175,233.203 386.911,233.846 386.313 L 235.017 385.226 243.266 385.184 L 251.515 385.142 252.457 384.074 L 253.400 383.006 252.407 383.803 C 251.809 384.283,251.609 384.347,251.903 383.963 C 252.173 383.613,252.311 383.244,252.210 383.143 C 251.997 382.931,252.443 382.893,257.717 382.677 C 261.370 382.528,261.714 382.441,262.819 381.382 C 264.108 380.147,264.258 380.102,267.564 379.949 C 270.079 379.832,270.717 379.443,270.571 378.115 C 270.476 377.252,270.607 377.200,272.862 377.200 C 275.391 377.200,276.498 376.805,277.800 375.439 C 278.240 374.978,279.050 374.570,279.600 374.534 C 282.711 374.327,283.387 374.101,283.601 373.197 C 283.807 372.324,287.230 370.963,287.796 371.529 C 287.908 371.642,288.000 371.433,288.000 371.067 C 288.000 370.700,288.191 370.400,288.424 370.400 C 288.657 370.400,288.748 370.239,288.626 370.042 C 288.360 369.611,289.318 369.200,290.590 369.200 C 291.512 369.200,292.000 368.532,292.000 367.267 C 292.000 366.756,292.431 366.575,293.840 366.495 C 295.959 366.373,297.126 365.705,296.976 364.700 C 296.901 364.203,297.142 364.000,297.807 364.000 C 298.942 364.000,300.000 363.022,300.000 361.971 C 300.000 361.413,300.279 361.200,301.013 361.200 C 301.569 361.200,302.128 360.931,302.254 360.602 C 302.381 360.274,302.675 360.123,302.908 360.267 C 303.141 360.411,303.717 360.047,304.187 359.457 C 304.658 358.867,305.439 358.308,305.923 358.215 C 307.067 357.994,307.658 357.618,307.433 357.253 C 307.125 356.754,307.751 356.136,308.969 355.737 C 309.750 355.481,310.158 355.064,310.202 354.477 C 310.281 353.399,310.449 353.222,311.600 353.000 C 312.661 352.796,312.832 352.660,312.941 351.937 C 313.083 351.002,313.625 350.400,314.326 350.400 C 314.974 350.400,315.582 349.375,316.223 347.200 C 316.499 346.267,316.537 346.253,316.800 347.000 C 317.072 347.771,317.092 347.768,317.368 346.900 C 317.525 346.405,317.867 345.997,318.127 345.994 C 318.407 345.990,318.355 345.829,318.000 345.600 C 317.600 345.342,317.567 345.210,317.900 345.206 C 318.175 345.203,318.400 344.930,318.400 344.600 C 318.400 344.270,318.676 344.000,319.013 344.000 C 319.350 344.000,319.755 343.651,319.913 343.224 C 320.071 342.797,320.380 342.482,320.600 342.524 C 320.820 342.566,321.056 342.015,321.125 341.300 C 321.226 340.258,321.428 340.000,322.145 340.000 C 323.347 340.000,324.000 339.272,324.000 337.933 C 324.000 337.064,324.144 336.880,324.666 337.081 C 325.110 337.251,325.236 337.182,325.045 336.873 C 324.859 336.573,324.971 336.491,325.362 336.641 C 326.036 336.900,326.384 335.956,326.518 333.500 C 326.563 332.675,326.735 331.978,326.900 331.950 C 327.065 331.923,327.380 331.855,327.600 331.800 C 327.820 331.745,328.270 331.678,328.600 331.650 C 329.035 331.614,329.200 331.114,329.200 329.829 C 329.200 328.327,329.387 327.912,330.429 327.096 C 331.352 326.374,331.716 325.704,331.890 324.406 C 332.105 322.801,333.399 320.866,334.100 321.100 C 334.402 321.201,334.556 319.700,334.489 317.301 C 334.458 316.210,334.624 315.960,335.526 315.739 C 336.995 315.380,337.020 315.309,337.146 311.125 C 337.263 307.253,337.472 306.354,338.044 307.257 C 338.312 307.680,338.389 307.645,338.394 307.100 C 338.397 306.705,338.705 306.397,339.100 306.394 C 339.621 306.389,339.667 306.303,339.281 306.059 C 338.862 305.793,338.872 305.638,339.332 305.256 C 339.784 304.881,339.915 303.263,339.961 297.491 L 340.019 290.200 341.110 289.256 C 341.709 288.737,341.975 288.433,341.700 288.580 C 341.425 288.727,341.200 288.672,341.200 288.457 C 341.200 288.242,341.414 287.995,341.676 287.908 C 342.259 287.714,342.334 286.535,342.351 277.400 C 342.369 267.054,342.349 266.800,341.509 266.800 C 341.119 266.800,340.800 266.519,340.800 266.176 C 340.800 265.833,340.620 265.664,340.400 265.800 C 340.146 265.957,340.000 264.885,340.000 262.866 C 340.000 260.361,340.132 259.635,340.621 259.447 C 340.973 259.312,341.137 259.378,341.000 259.600 C 340.864 259.820,341.025 259.889,341.368 259.757 C 342.425 259.351,342.432 258.704,342.315 173.200 C 342.208 95.047,342.155 89.400,341.528 89.395 C 340.188 89.385,340.120 89.179,340.050 84.980 L 340.000 81.959 338.600 81.374 C 337.517 80.922,337.186 80.542,337.139 79.695 C 337.106 79.093,337.060 78.345,337.037 78.033 C 337.015 77.721,336.771 77.390,336.496 77.299 C 336.220 77.207,336.116 76.936,336.263 76.698 C 336.430 76.428,336.297 76.354,335.912 76.502 C 335.361 76.713,333.949 75.567,333.690 74.700 C 333.640 74.535,333.485 74.415,333.345 74.434 C 333.204 74.453,332.968 74.272,332.819 74.031 C 332.671 73.791,331.796 73.550,330.875 73.497 C 329.954 73.444,329.200 73.265,329.200 73.100 C 329.200 72.935,329.200 72.710,329.200 72.600 C 329.200 70.669,312.605 69.780,310.307 71.587 C 309.739 72.034,309.077 72.400,308.837 72.400 C 308.597 72.400,308.445 72.613,308.500 72.872 C 308.558 73.145,308.022 73.399,307.233 73.473 C 305.608 73.625,305.506 73.706,305.446 74.884 C 305.411 75.566,305.101 75.844,304.200 75.998 C 303.191 76.171,302.980 76.410,302.875 77.502 C 302.765 78.642,302.607 78.800,301.579 78.800 C 300.528 78.800,300.384 78.959,300.159 80.368 C 299.959 81.619,299.757 81.907,299.162 81.793 C 298.742 81.712,298.456 81.857,298.508 82.125 C 298.559 82.386,298.411 82.567,298.180 82.527 C 297.949 82.486,297.738 82.846,297.712 83.327 C 297.685 83.807,297.571 85.190,297.458 86.400 C 297.345 87.610,297.238 111.910,297.220 140.400 C 297.202 169.681,297.037 191.963,296.842 191.654 C 296.649 191.350,295.547 191.027,294.352 190.924 C 291.926 190.716,291.895 190.699,291.714 189.514 C 291.540 188.372,291.595 188.404,289.352 188.142 C 288.278 188.017,287.220 187.745,287.000 187.537 C 286.737 187.289,286.565 163.163,286.499 117.120 C 286.419 61.882,286.293 46.949,285.899 46.463 C 285.500 45.970,285.500 45.907,285.900 46.147 C 286.175 46.312,286.400 46.257,286.400 46.024 C 286.400 45.791,286.130 45.600,285.800 45.600 C 285.470 45.600,285.200 45.330,285.200 45.000 C 285.200 44.670,284.975 44.445,284.700 44.500 C 284.342 44.572,284.167 43.716,284.083 41.487 C 284.014 39.661,283.809 38.471,283.588 38.608 C 283.379 38.736,283.303 38.596,283.419 38.296 C 283.660 37.666,282.228 36.212,281.692 36.543 C 281.352 36.753,281.282 36.545,281.139 34.900 C 281.064 34.032,280.471 33.614,279.300 33.606 C 278.572 33.601,278.400 33.375,278.400 32.424 C 278.400 31.777,278.192 31.119,277.938 30.962 C 277.629 30.771,277.582 30.862,277.797 31.238 C 278.056 31.693,278.014 31.704,277.579 31.300 C 277.282 31.025,276.549 30.800,275.949 30.800 C 275.190 30.800,274.509 30.377,273.712 29.410 L 272.566 28.019 262.716 28.110 C 252.288 28.205,252.300 28.203,252.300 29.783 C 252.300 30.623,252.111 30.800,251.212 30.800 C 250.065 30.800,248.000 32.287,248.000 33.113 C 248.000 33.381,247.730 33.600,247.400 33.600 C 247.070 33.600,246.800 33.789,246.800 34.019 C 246.800 34.507,244.845 36.400,244.342 36.400 C 244.154 36.400,244.021 36.535,244.047 36.700 C 244.217 37.772,243.937 39.208,243.600 39.000 C 243.380 38.864,243.200 38.963,243.200 39.219 C 243.200 39.476,242.939 39.586,242.620 39.463 C 242.213 39.307,242.114 39.433,242.288 39.886 C 242.430 40.255,242.370 40.428,242.148 40.291 C 241.935 40.160,241.728 40.445,241.690 40.926 C 241.363 45.007,241.290 56.374,241.248 110.300 L 241.200 172.000 239.849 172.000 C 239.063 172.000,238.268 171.717,237.949 171.323 C 237.585 170.875,237.567 170.747,237.895 170.944 C 238.226 171.143,238.316 171.046,238.164 170.652 C 238.040 170.327,237.673 169.960,237.348 169.836 C 236.954 169.684,236.857 169.774,237.056 170.105 C 237.281 170.480,237.214 170.493,236.777 170.159 C 236.460 169.916,235.030 169.677,233.601 169.627 C 232.172 169.576,230.965 169.498,230.919 169.452 C 230.873 169.407,230.812 138.416,230.782 100.585 C 230.746 54.421,230.593 31.637,230.319 31.305 C 230.094 31.033,230.015 30.538,230.143 30.205 C 230.277 29.854,230.154 29.600,229.849 29.600 C 228.787 29.600,228.079 28.172,227.865 25.600 C 227.746 24.170,227.638 22.955,227.624 22.900 C 227.611 22.845,227.060 22.800,226.400 22.800 C 225.317 22.800,225.198 22.673,225.178 21.500 C 225.161 20.524,224.837 19.955,223.878 19.218 C 222.891 18.459,222.760 18.421,223.302 19.051 C 223.866 19.707,223.890 19.867,223.424 19.867 C 223.105 19.867,222.854 19.762,222.865 19.633 C 222.931 18.910,222.228 17.593,221.753 17.550 C 221.449 17.523,221.013 17.478,220.785 17.450 C 220.243 17.385,219.597 16.328,219.850 15.919 C 219.958 15.744,219.846 15.600,219.600 15.600 C 219.354 15.600,219.264 15.420,219.400 15.200 C 219.556 14.948,218.612 14.800,216.847 14.800 C 215.162 14.800,213.934 14.616,213.762 14.338 C 213.572 14.031,213.654 13.986,214.007 14.204 C 214.298 14.384,214.191 14.072,213.768 13.509 C 213.256 12.827,212.902 12.639,212.706 12.943 C 212.498 13.267,212.410 13.248,212.406 12.876 C 212.403 12.588,212.232 12.456,212.028 12.583 C 211.823 12.709,211.559 12.656,211.440 12.465 C 211.140 11.980,203.600 12.078,202.495 12.582 M340.570 88.278 C 340.629 88.675,340.809 88.970,340.971 88.933 C 341.579 88.796,341.602 88.500,341.042 88.035 C 340.572 87.645,340.484 87.690,340.570 88.278 M234.400 213.190 C 237.959 213.450,239.941 213.795,241.276 214.386 C 242.308 214.843,244.648 215.403,246.476 215.630 C 248.334 215.861,250.682 216.459,251.800 216.985 C 252.900 217.502,254.790 218.108,256.000 218.331 C 257.210 218.554,259.253 219.291,260.541 219.968 C 261.828 220.646,263.278 221.200,263.763 221.200 C 264.248 221.200,265.260 221.654,266.012 222.209 C 266.764 222.763,268.104 223.410,268.989 223.645 C 269.875 223.880,271.396 224.596,272.369 225.236 C 273.341 225.876,274.452 226.400,274.838 226.400 C 275.223 226.400,276.049 226.829,276.673 227.354 C 277.296 227.879,278.523 228.608,279.398 228.973 C 280.273 229.339,281.352 229.969,281.795 230.372 C 282.238 230.776,283.230 231.422,284.000 231.807 C 284.770 232.193,285.545 232.756,285.722 233.058 C 285.899 233.360,286.685 233.875,287.468 234.203 C 288.251 234.530,289.496 235.293,290.235 235.899 C 290.974 236.504,292.402 237.630,293.409 238.400 C 294.415 239.170,295.796 240.295,296.478 240.900 C 297.161 241.505,297.875 242.000,298.067 242.000 C 299.642 242.000,317.427 259.963,318.170 262.304 C 318.313 262.756,318.685 263.224,318.997 263.344 C 319.309 263.463,319.936 264.290,320.390 265.181 C 320.844 266.071,321.377 266.800,321.572 266.800 C 321.768 266.800,322.332 267.655,322.825 268.700 C 323.318 269.745,324.099 271.020,324.560 271.532 C 326.016 273.148,325.768 277.381,324.100 279.405 C 323.385 280.273,322.800 281.144,322.800 281.343 C 322.800 281.541,322.215 282.380,321.500 283.207 C 320.785 284.034,319.660 285.479,319.000 286.419 C 317.816 288.105,315.997 290.374,313.487 293.299 C 308.054 299.627,291.589 315.200,290.331 315.200 C 289.926 315.200,288.908 315.956,285.691 318.647 C 284.871 319.333,283.447 320.275,282.527 320.741 C 281.607 321.207,280.745 321.766,280.611 321.983 C 280.477 322.200,279.609 322.713,278.683 323.124 C 277.758 323.534,276.754 324.168,276.453 324.532 C 276.153 324.896,275.234 325.375,274.412 325.597 C 273.590 325.818,272.441 326.441,271.858 326.982 C 271.274 327.522,270.123 328.082,269.299 328.225 C 268.474 328.369,267.144 328.929,266.341 329.469 C 265.539 330.010,263.777 330.710,262.427 331.025 C 261.076 331.340,259.483 331.956,258.886 332.393 C 258.211 332.888,256.589 333.356,254.601 333.630 C 252.842 333.872,250.627 334.423,249.679 334.855 C 245.263 336.867,216.095 337.054,213.074 335.089 C 212.171 334.503,209.523 333.834,206.418 333.408 C 205.439 333.274,204.041 332.796,203.312 332.346 C 202.584 331.896,200.789 331.276,199.325 330.970 C 197.860 330.664,196.018 329.972,195.231 329.434 C 194.444 328.896,193.141 328.336,192.335 328.190 C 191.529 328.044,190.502 327.582,190.052 327.163 C 189.603 326.745,188.262 326.038,187.072 325.593 C 185.882 325.147,184.596 324.437,184.213 324.014 C 183.830 323.591,182.991 323.130,182.349 322.989 C 181.706 322.848,180.661 322.295,180.026 321.761 C 179.391 321.226,178.232 320.522,177.450 320.195 C 176.668 319.869,175.836 319.241,175.600 318.801 C 175.365 318.360,174.922 318.000,174.617 318.000 C 174.311 318.000,173.260 317.388,172.281 316.641 C 171.301 315.893,170.073 315.062,169.550 314.793 C 169.028 314.524,168.240 313.974,167.800 313.569 C 166.518 312.392,163.873 310.217,162.951 309.584 C 161.018 308.255,157.662 305.545,155.600 303.648 C 148.717 297.317,147.348 296.023,145.658 294.257 C 144.636 293.188,142.000 290.458,139.800 288.189 C 137.600 285.921,135.218 283.375,134.506 282.532 C 133.795 281.690,132.068 279.650,130.668 278.000 C 126.790 273.429,126.539 271.738,129.323 268.924 C 130.025 268.214,131.089 267.040,131.687 266.316 C 133.398 264.243,134.986 262.430,137.897 259.225 C 142.542 254.112,144.060 252.668,156.747 241.298 C 158.801 239.458,161.607 237.189,163.436 235.889 C 167.148 233.253,167.862 232.764,168.959 232.100 C 169.597 231.715,170.677 230.929,171.359 230.354 C 172.042 229.779,173.050 229.173,173.600 229.009 C 174.150 228.845,175.050 228.297,175.600 227.792 C 176.150 227.287,177.318 226.579,178.195 226.218 C 179.072 225.857,180.152 225.235,180.595 224.836 C 181.038 224.437,181.993 223.912,182.718 223.670 C 183.442 223.428,184.561 222.855,185.204 222.397 C 185.847 221.939,187.324 221.283,188.486 220.938 C 189.649 220.593,191.092 219.960,191.694 219.532 C 192.296 219.104,193.669 218.614,194.746 218.444 C 195.822 218.274,197.598 217.667,198.692 217.095 C 199.914 216.455,201.933 215.883,203.929 215.610 C 205.716 215.365,208.038 214.777,209.089 214.302 C 211.935 213.017,224.504 212.465,234.400 213.190 " stroke="none" fill="#04acdc" fill-rule="evenodd"></path><path id="path3" d="M222.400 18.310 C 222.400 18.553,222.583 18.866,222.807 19.004 C 223.030 19.142,223.128 19.393,223.024 19.561 C 222.920 19.729,223.098 19.867,223.419 19.867 C 223.895 19.867,223.874 19.712,223.306 19.033 C 222.922 18.575,222.562 18.125,222.504 18.033 C 222.447 17.942,222.400 18.066,222.400 18.310 M230.493 37.200 C 230.493 37.970,230.575 38.285,230.676 37.900 C 230.776 37.515,230.776 36.885,230.676 36.500 C 230.575 36.115,230.493 36.430,230.493 37.200 M156.084 42.270 C 155.713 42.419,155.812 42.690,156.435 43.231 C 157.217 43.908,158.000 43.948,158.000 43.310 C 158.000 43.176,157.882 43.185,157.737 43.330 C 157.375 43.692,156.356 42.795,156.628 42.355 C 156.867 41.968,156.845 41.965,156.084 42.270 M215.800 213.187 C 212.139 213.379,210.547 213.644,209.089 214.302 C 208.038 214.777,205.716 215.365,203.929 215.610 C 201.933 215.883,199.914 216.455,198.692 217.095 C 197.598 217.667,195.822 218.274,194.746 218.444 C 193.669 218.614,192.296 219.104,191.694 219.532 C 191.092 219.960,189.649 220.593,188.486 220.938 C 187.324 221.283,185.847 221.939,185.204 222.397 C 184.561 222.855,183.442 223.428,182.718 223.670 C 181.993 223.912,181.038 224.437,180.595 224.836 C 180.152 225.235,179.072 225.857,178.195 226.218 C 177.318 226.579,176.150 227.287,175.600 227.792 C 175.050 228.297,174.150 228.845,173.600 229.009 C 173.050 229.173,172.042 229.779,171.359 230.354 C 170.677 230.929,169.597 231.715,168.959 232.100 C 167.862 232.764,167.148 233.253,163.436 235.889 C 161.607 237.189,158.801 239.458,156.747 241.298 C 144.060 252.668,142.542 254.112,137.897 259.225 C 134.986 262.430,133.398 264.243,131.687 266.316 C 131.089 267.040,130.025 268.214,129.323 268.924 C 126.539 271.738,126.790 273.429,130.668 278.000 C 132.068 279.650,133.795 281.690,134.506 282.532 C 135.218 283.375,137.600 285.921,139.800 288.189 C 142.000 290.458,144.636 293.188,145.658 294.257 C 147.348 296.023,148.717 297.317,155.600 303.648 C 157.662 305.545,161.018 308.255,162.951 309.584 C 163.873 310.217,166.518 312.392,167.800 313.569 C 168.240 313.974,169.028 314.524,169.550 314.793 C 170.073 315.062,171.301 315.893,172.281 316.641 C 173.260 317.388,174.311 318.000,174.617 318.000 C 174.922 318.000,175.365 318.360,175.600 318.801 C 175.836 319.241,176.668 319.869,177.450 320.195 C 178.232 320.522,179.391 321.226,180.026 321.761 C 180.661 322.295,181.706 322.848,182.349 322.989 C 182.991 323.130,183.830 323.591,184.213 324.014 C 184.596 324.437,185.882 325.147,187.072 325.593 C 188.262 326.038,189.603 326.745,190.052 327.163 C 190.502 327.582,191.529 328.044,192.335 328.190 C 193.141 328.336,194.444 328.896,195.231 329.434 C 196.018 329.972,197.860 330.664,199.325 330.970 C 200.789 331.276,202.584 331.896,203.312 332.346 C 204.041 332.796,205.439 333.274,206.418 333.408 C 209.523 333.834,212.171 334.503,213.074 335.089 C 216.095 337.054,245.263 336.867,249.679 334.855 C 250.627 334.423,252.842 333.872,254.601 333.630 C 256.589 333.356,258.211 332.888,258.886 332.393 C 259.483 331.956,261.076 331.340,262.427 331.025 C 263.777 330.710,265.539 330.010,266.341 329.469 C 267.144 328.929,268.474 328.369,269.299 328.225 C 270.123 328.082,271.274 327.522,271.858 326.982 C 272.441 326.441,273.590 325.818,274.412 325.597 C 275.234 325.375,276.153 324.896,276.453 324.532 C 276.754 324.168,277.758 323.534,278.683 323.124 C 279.609 322.713,280.477 322.200,280.611 321.983 C 280.745 321.766,281.607 321.207,282.527 320.741 C 283.447 320.275,284.871 319.333,285.691 318.647 C 288.908 315.956,289.926 315.200,290.331 315.200 C 291.589 315.200,308.054 299.627,313.487 293.299 C 315.997 290.374,317.816 288.105,319.000 286.419 C 319.660 285.479,320.785 284.034,321.500 283.207 C 322.215 282.380,322.800 281.541,322.800 281.343 C 322.800 281.144,323.385 280.273,324.100 279.405 C 325.768 277.381,326.016 273.148,324.560 271.532 C 324.099 271.020,323.318 269.745,322.825 268.700 C 322.332 267.655,321.768 266.800,321.572 266.800 C 321.377 266.800,320.844 266.071,320.390 265.181 C 319.936 264.290,319.309 263.463,318.997 263.344 C 318.685 263.224,318.313 262.756,318.170 262.304 C 317.427 259.963,299.642 242.000,298.067 242.000 C 297.875 242.000,297.161 241.505,296.478 240.900 C 295.796 240.295,294.415 239.170,293.409 238.400 C 292.402 237.630,290.974 236.504,290.235 235.899 C 289.496 235.293,288.251 234.530,287.468 234.203 C 286.685 233.875,285.899 233.360,285.722 233.058 C 285.545 232.756,284.770 232.193,284.000 231.807 C 283.230 231.422,282.238 230.776,281.795 230.372 C 281.352 229.969,280.273 229.339,279.398 228.973 C 278.523 228.608,277.296 227.879,276.673 227.354 C 276.049 226.829,275.223 226.400,274.838 226.400 C 274.452 226.400,273.341 225.876,272.369 225.236 C 271.396 224.596,269.875 223.880,268.989 223.645 C 268.104 223.410,266.764 222.763,266.012 222.209 C 265.260 221.654,264.248 221.200,263.763 221.200 C 263.278 221.200,261.828 220.646,260.541 219.968 C 259.253 219.291,257.210 218.554,256.000 218.331 C 254.790 218.108,252.900 217.502,251.800 216.985 C 250.682 216.459,248.334 215.861,246.476 215.630 C 244.648 215.403,242.308 214.843,241.276 214.386 C 238.157 213.006,228.165 212.535,215.800 213.187 M234.083 214.019 C 236.941 214.270,239.435 214.721,240.483 215.176 C 241.427 215.586,243.802 216.130,245.761 216.384 C 247.720 216.638,250.031 217.208,250.898 217.650 C 251.765 218.092,253.701 218.688,255.200 218.974 C 256.700 219.259,258.443 219.861,259.075 220.311 C 259.707 220.761,261.209 221.388,262.412 221.704 C 263.615 222.020,265.277 222.741,266.105 223.305 C 266.933 223.870,268.312 224.450,269.170 224.595 C 270.027 224.740,271.036 225.198,271.411 225.613 C 271.787 226.028,272.959 226.654,274.016 227.005 C 275.073 227.357,276.175 227.929,276.464 228.277 C 276.752 228.625,277.779 229.248,278.746 229.663 C 279.713 230.077,281.034 230.862,281.682 231.408 C 282.331 231.954,283.090 232.400,283.369 232.400 C 283.648 232.400,284.199 232.757,284.594 233.193 C 284.989 233.630,286.232 234.535,287.356 235.206 C 290.483 237.070,291.646 237.921,296.159 241.644 C 297.237 242.533,299.385 244.271,300.932 245.505 C 304.737 248.541,312.109 256.000,315.112 259.852 C 316.462 261.584,317.908 263.360,318.327 263.800 C 318.745 264.240,319.383 265.176,319.744 265.880 C 320.105 266.584,320.657 267.304,320.971 267.480 C 321.286 267.656,321.928 268.698,322.398 269.795 C 322.868 270.892,323.601 272.114,324.026 272.511 C 325.814 274.176,324.729 277.589,320.818 282.600 C 318.159 286.006,316.949 287.582,315.600 289.396 C 313.007 292.882,297.661 308.800,296.893 308.800 C 296.703 308.800,295.986 309.385,295.301 310.100 C 293.581 311.895,291.692 313.341,289.800 314.312 C 288.920 314.764,287.973 315.508,287.697 315.967 C 287.420 316.425,286.940 316.800,286.631 316.800 C 286.321 316.800,285.558 317.340,284.935 318.000 C 284.312 318.660,283.595 319.200,283.341 319.200 C 283.088 319.200,281.922 319.920,280.751 320.800 C 279.580 321.680,278.405 322.400,278.141 322.400 C 277.877 322.400,277.118 322.857,276.453 323.417 C 275.789 323.976,274.411 324.717,273.391 325.065 C 272.372 325.412,271.442 325.945,271.326 326.250 C 271.209 326.554,270.098 327.087,268.857 327.435 C 267.615 327.782,266.108 328.414,265.508 328.840 C 264.907 329.265,263.287 329.893,261.908 330.235 C 260.528 330.577,258.923 331.196,258.339 331.611 C 257.718 332.053,255.698 332.620,253.461 332.980 C 251.362 333.318,248.689 333.989,247.522 334.472 C 243.402 336.176,217.199 335.960,213.694 334.194 C 212.976 333.832,210.739 333.270,208.725 332.946 C 206.710 332.621,204.598 332.031,204.031 331.633 C 203.464 331.235,201.620 330.606,199.932 330.235 C 198.245 329.864,196.656 329.309,196.402 329.002 C 196.148 328.696,194.797 328.065,193.400 327.600 C 192.003 327.135,190.656 326.508,190.405 326.207 C 190.155 325.905,189.197 325.401,188.275 325.086 C 187.354 324.772,185.900 324.039,185.044 323.457 C 184.188 322.876,183.278 322.400,183.022 322.400 C 182.765 322.400,181.935 321.932,181.178 321.361 C 180.420 320.789,179.035 319.985,178.100 319.575 C 177.165 319.164,176.400 318.647,176.400 318.424 C 176.400 318.202,175.846 317.734,175.169 317.384 C 174.492 317.034,173.128 316.129,172.138 315.374 C 171.149 314.618,170.123 314.000,169.858 314.000 C 169.594 314.000,168.904 313.505,168.325 312.900 C 167.746 312.295,166.443 311.170,165.431 310.400 C 164.418 309.630,162.771 308.325,161.770 307.500 C 160.770 306.675,159.827 306.000,159.676 305.999 C 159.524 305.999,158.140 304.836,156.600 303.416 C 155.060 301.995,152.559 299.701,151.042 298.317 C 149.525 296.932,147.365 294.836,146.242 293.657 C 145.119 292.479,142.445 289.739,140.300 287.568 C 138.155 285.398,136.400 283.495,136.400 283.340 C 136.400 283.184,135.815 282.484,135.100 281.784 C 134.385 281.085,133.131 279.632,132.313 278.556 C 131.495 277.480,130.260 275.983,129.570 275.228 C 127.992 273.505,128.100 271.441,129.863 269.608 C 130.488 268.958,131.491 267.835,132.090 267.113 C 134.930 263.693,136.616 261.874,142.000 256.418 C 145.190 253.186,149.675 248.845,151.967 246.771 C 154.258 244.697,156.701 242.415,157.395 241.700 C 158.089 240.985,158.856 240.400,159.099 240.400 C 159.343 240.400,159.873 239.979,160.279 239.464 C 160.684 238.948,161.462 238.296,162.008 238.013 C 163.312 237.337,166.101 235.325,167.988 233.700 C 168.818 232.985,169.686 232.400,169.918 232.400 C 170.149 232.400,170.847 231.975,171.469 231.455 C 172.091 230.935,173.320 230.144,174.200 229.697 C 175.080 229.251,176.143 228.506,176.562 228.043 C 176.981 227.579,177.636 227.200,178.017 227.200 C 178.398 227.200,179.626 226.570,180.745 225.800 C 181.865 225.030,183.024 224.400,183.322 224.400 C 183.619 224.400,184.663 223.870,185.641 223.222 C 186.619 222.575,188.208 221.867,189.173 221.651 C 190.138 221.434,191.440 220.877,192.066 220.414 C 192.693 219.951,194.239 219.384,195.503 219.155 C 196.766 218.925,198.575 218.309,199.522 217.785 C 200.559 217.211,202.527 216.656,204.473 216.390 C 206.249 216.147,208.625 215.581,209.751 215.132 C 213.055 213.817,225.361 213.254,234.083 214.019 M220.400 225.966 C 217.292 226.157,216.272 226.391,214.800 227.248 C 213.810 227.824,212.129 228.422,211.065 228.577 C 209.726 228.773,208.754 229.219,207.906 230.030 C 207.232 230.673,206.339 231.200,205.921 231.200 C 204.921 231.200,202.800 232.308,202.800 232.831 C 202.800 233.056,202.174 233.503,201.408 233.822 C 200.642 234.142,199.733 234.836,199.387 235.364 C 199.041 235.892,198.329 236.431,197.806 236.563 C 197.282 236.694,196.739 237.163,196.598 237.605 C 196.458 238.047,195.819 238.680,195.177 239.012 C 194.536 239.343,193.909 240.023,193.784 240.522 C 193.659 241.021,193.162 241.603,192.680 241.815 C 192.198 242.027,191.569 242.694,191.281 243.297 C 190.994 243.900,190.416 244.577,189.996 244.802 C 189.576 245.027,188.895 245.973,188.481 246.905 C 188.068 247.837,187.432 248.846,187.068 249.147 C 186.704 249.447,186.207 250.432,185.963 251.336 C 185.720 252.239,185.096 253.483,184.577 254.101 C 183.657 255.193,183.492 255.775,182.998 259.665 C 182.868 260.690,182.528 261.619,182.243 261.728 C 180.145 262.533,179.903 281.055,181.953 283.933 C 182.432 284.607,182.948 286.224,183.159 287.714 C 183.547 290.449,183.968 291.544,184.947 292.356 C 185.272 292.625,185.657 293.555,185.804 294.421 C 185.956 295.321,186.446 296.298,186.948 296.698 C 187.431 297.084,188.159 298.278,188.566 299.351 C 188.973 300.424,189.615 301.383,189.993 301.482 C 190.372 301.581,190.984 302.297,191.354 303.072 C 191.724 303.847,192.365 304.570,192.780 304.679 C 193.195 304.787,193.752 305.401,194.018 306.043 C 194.284 306.685,194.890 307.308,195.365 307.427 C 195.840 307.546,196.403 308.038,196.615 308.520 C 196.827 309.002,197.494 309.631,198.097 309.919 C 198.700 310.206,199.382 310.792,199.611 311.221 C 199.841 311.650,200.697 312.281,201.514 312.622 C 202.331 312.963,203.450 313.653,204.000 314.154 C 204.550 314.656,205.808 315.296,206.795 315.578 C 207.783 315.859,209.075 316.497,209.667 316.995 C 210.362 317.580,211.556 318.002,213.038 318.187 C 214.319 318.348,215.816 318.832,216.428 319.284 C 219.408 321.487,237.997 321.452,241.103 319.237 C 241.706 318.807,243.448 318.270,244.973 318.043 C 247.105 317.726,247.937 317.406,248.573 316.658 C 249.091 316.048,249.997 315.601,251.000 315.459 C 252.088 315.305,252.920 314.861,253.600 314.074 C 254.150 313.437,255.050 312.803,255.600 312.665 C 256.150 312.526,257.294 311.825,258.142 311.107 C 262.652 307.284,263.888 306.123,264.831 304.825 C 265.401 304.041,266.157 303.161,266.513 302.868 C 266.868 302.575,267.356 301.739,267.597 301.010 C 267.837 300.281,268.365 299.598,268.770 299.492 C 269.192 299.382,269.716 298.640,270.001 297.750 C 270.273 296.897,270.918 295.748,271.432 295.195 C 271.959 294.629,272.569 293.231,272.828 291.995 C 273.081 290.788,273.601 289.440,273.984 289.000 C 276.584 286.014,274.526 284.407,268.100 284.402 L 264.800 284.400 264.800 272.041 L 264.800 259.682 268.235 259.541 C 271.189 259.420,271.770 259.277,272.379 258.525 C 273.579 257.044,272.734 251.221,271.200 250.400 C 270.796 250.184,270.348 249.474,270.205 248.824 C 270.062 248.174,269.442 247.008,268.827 246.233 C 268.211 245.459,267.484 244.286,267.211 243.626 C 266.938 242.966,266.358 242.314,265.923 242.176 C 265.488 242.037,264.965 241.447,264.760 240.862 C 264.555 240.278,263.851 239.493,263.194 239.119 C 262.537 238.744,262.000 238.161,262.000 237.824 C 262.000 237.487,261.370 236.948,260.600 236.626 C 259.811 236.296,259.200 235.756,259.200 235.388 C 259.200 234.998,258.556 234.483,257.600 234.107 C 256.720 233.761,256.000 233.323,256.000 233.133 C 256.000 232.630,253.527 231.203,252.653 231.201 C 252.242 231.201,251.316 230.683,250.596 230.050 C 249.682 229.248,248.554 228.772,246.858 228.473 C 245.522 228.238,243.900 227.655,243.255 227.177 C 241.411 225.814,231.445 225.286,220.400 225.966 M241.800 228.057 C 243.120 228.629,244.858 229.216,245.662 229.360 C 250.838 230.287,266.400 241.713,266.400 244.585 C 266.400 244.857,266.925 245.805,267.567 246.691 C 268.209 247.577,269.088 248.999,269.520 249.851 C 269.953 250.703,270.688 252.113,271.153 252.985 C 273.138 256.699,272.083 258.400,267.794 258.400 C 263.400 258.400,263.600 257.747,263.600 272.073 C 263.600 286.406,263.219 285.450,269.016 285.663 C 273.227 285.817,274.009 286.203,273.057 287.657 C 272.718 288.176,272.319 289.361,272.171 290.290 C 272.022 291.220,271.293 292.924,270.550 294.077 C 269.808 295.230,269.200 296.364,269.200 296.597 C 269.200 297.018,267.795 298.973,264.456 303.200 C 262.958 305.096,260.036 307.899,256.818 310.527 C 256.328 310.927,255.268 311.621,254.464 312.068 C 253.659 312.515,252.730 313.118,252.400 313.407 C 252.070 313.697,250.835 314.299,249.655 314.745 C 248.475 315.192,247.197 315.840,246.815 316.186 C 246.433 316.533,244.738 317.080,243.049 317.403 C 241.360 317.726,239.403 318.288,238.700 318.652 C 235.911 320.094,222.065 320.081,218.698 318.633 C 217.872 318.278,215.982 317.712,214.498 317.375 C 213.014 317.039,211.331 316.425,210.758 316.013 C 210.185 315.600,208.928 315.050,207.965 314.791 C 207.001 314.531,205.619 313.797,204.893 313.159 C 204.166 312.522,203.333 312.000,203.041 312.000 C 202.009 312.000,192.002 303.012,191.999 302.083 C 191.999 301.927,191.458 301.170,190.797 300.400 C 190.137 299.630,189.481 298.643,189.341 298.206 C 189.201 297.769,188.589 296.779,187.981 296.006 C 187.373 295.233,186.756 294.021,186.609 293.313 C 186.462 292.606,185.936 291.428,185.440 290.696 C 184.943 289.965,184.316 288.204,184.046 286.783 C 183.776 285.362,183.172 283.120,182.703 281.800 C 181.437 278.236,181.447 267.716,182.719 264.200 C 183.197 262.880,183.771 260.810,183.994 259.600 C 184.352 257.664,185.731 254.280,187.415 251.200 C 187.716 250.650,188.420 249.352,188.980 248.315 C 190.206 246.046,190.624 245.556,196.039 240.053 C 198.379 237.675,201.318 235.130,202.599 234.373 C 207.551 231.443,210.687 229.889,212.789 229.320 C 213.993 228.995,215.491 228.463,216.119 228.138 C 219.530 226.375,237.791 226.317,241.800 228.057 M224.800 248.366 C 223.590 248.536,222.030 248.970,221.333 249.331 C 220.635 249.692,219.060 250.363,217.833 250.822 C 216.605 251.282,215.600 251.782,215.600 251.934 C 215.600 252.087,214.867 252.659,213.971 253.206 C 212.230 254.268,208.000 258.924,208.000 259.777 C 208.000 260.059,207.490 260.932,206.866 261.717 C 203.476 265.983,203.702 278.179,207.292 284.721 C 208.979 287.794,213.221 292.387,215.383 293.481 C 216.052 293.819,216.905 294.364,217.278 294.691 C 219.503 296.639,228.888 298.364,232.200 297.433 C 233.520 297.062,235.680 296.485,237.000 296.151 C 238.320 295.816,239.760 295.216,240.200 294.817 C 240.640 294.417,241.720 293.719,242.600 293.266 C 245.461 291.791,249.607 287.215,250.580 284.457 C 250.896 283.562,251.550 282.295,252.033 281.641 C 254.192 278.721,253.759 267.368,251.298 262.344 C 249.046 257.748,242.264 250.800,240.030 250.800 C 239.677 250.800,238.310 250.274,236.993 249.631 C 234.319 248.327,229.008 247.776,224.800 248.366 M234.953 250.142 C 235.716 250.660,237.433 251.299,238.767 251.562 C 240.478 251.898,241.321 252.278,241.627 252.851 C 241.866 253.298,242.581 253.844,243.215 254.065 C 243.849 254.286,244.477 254.814,244.612 255.238 C 244.747 255.662,245.363 256.271,245.981 256.590 C 246.600 256.910,247.222 257.634,247.364 258.200 C 247.506 258.765,248.047 259.421,248.567 259.658 C 249.255 259.971,249.583 260.538,249.774 261.744 C 249.919 262.655,250.523 264.104,251.118 264.964 C 252.157 266.466,252.205 266.765,252.329 272.484 L 252.458 278.439 251.270 280.320 C 250.616 281.354,249.957 282.793,249.805 283.517 C 249.653 284.242,249.085 285.279,248.542 285.821 C 248.000 286.364,247.293 287.436,246.973 288.204 C 246.652 288.972,246.155 289.600,245.869 289.600 C 245.584 289.600,244.835 290.137,244.207 290.793 C 243.578 291.449,242.285 292.283,241.332 292.647 C 240.379 293.011,239.597 293.419,239.594 293.554 C 239.561 294.860,232.266 296.239,227.400 295.859 C 222.044 295.441,219.080 294.885,218.713 294.230 C 218.275 293.447,216.301 292.400,215.263 292.400 C 214.780 292.400,214.397 292.042,214.248 291.451 C 214.112 290.908,213.509 290.294,212.840 290.017 C 212.196 289.750,211.568 289.128,211.444 288.634 C 211.321 288.141,210.774 287.534,210.230 287.286 C 209.548 286.976,209.099 286.301,208.786 285.118 C 208.535 284.173,207.904 282.948,207.381 282.395 C 205.136 280.018,205.298 265.804,207.607 262.665 C 208.263 261.773,208.800 260.790,208.800 260.482 C 208.800 260.173,209.295 259.426,209.900 258.820 C 210.505 258.215,211.779 256.883,212.732 255.860 C 213.685 254.837,214.706 254.000,215.003 254.000 C 215.299 254.000,215.928 253.509,216.400 252.909 C 217.040 252.096,217.867 251.693,219.645 251.331 C 220.958 251.063,222.519 250.480,223.116 250.035 C 224.851 248.739,232.995 248.813,234.953 250.142 M148.246 362.511 C 148.383 362.902,148.878 363.419,149.347 363.660 C 150.077 364.035,150.116 364.019,149.618 363.549 C 149.298 363.247,148.803 362.730,148.517 362.400 C 148.065 361.878,148.030 361.892,148.246 362.511 M213.827 386.030 C 214.678 386.970,214.756 386.980,214.631 386.133 C 214.578 385.767,214.218 385.420,213.832 385.364 C 213.165 385.266,213.165 385.299,213.827 386.030 " stroke="none" fill="#648eac" fill-rule="evenodd"></path><path id="path4" d="M213.439 12.738 C 213.300 12.961,213.382 13.265,213.620 13.412 C 214.235 13.793,214.632 13.272,214.118 12.758 C 213.831 12.471,213.607 12.464,213.439 12.738 M193.780 16.078 C 193.622 16.585,193.291 17.132,193.046 17.294 C 192.736 17.498,192.756 17.590,193.113 17.594 C 193.395 17.597,193.764 17.227,193.933 16.770 C 194.101 16.314,194.366 15.954,194.520 15.970 C 194.956 16.016,194.908 15.436,194.464 15.288 C 194.246 15.215,193.938 15.571,193.780 16.078 M223.487 18.734 C 224.099 19.320,224.662 19.659,224.738 19.487 C 224.947 19.011,224.074 18.113,223.174 17.877 C 222.510 17.704,222.563 17.849,223.487 18.734 M228.693 28.800 C 229.070 29.240,229.411 29.600,229.451 29.600 C 229.492 29.600,229.431 29.240,229.316 28.800 C 229.201 28.360,228.859 28.000,228.557 28.000 C 228.137 28.000,228.168 28.187,228.693 28.800 M274.000 29.800 C 274.517 30.350,274.998 30.800,275.070 30.800 C 275.424 30.800,275.128 29.985,274.571 29.429 C 273.523 28.380,272.991 28.726,274.000 29.800 M248.546 31.268 C 247.623 31.715,246.542 33.600,247.209 33.600 C 247.424 33.600,247.600 33.345,247.600 33.033 C 247.600 32.722,248.095 32.097,248.700 31.646 C 249.906 30.747,249.859 30.632,248.546 31.268 M230.501 33.400 C 230.505 34.280,230.587 34.593,230.683 34.095 C 230.779 33.598,230.775 32.878,230.675 32.495 C 230.575 32.113,230.496 32.520,230.501 33.400 M245.398 34.802 C 244.412 35.892,244.922 36.278,245.967 35.233 C 246.425 34.775,246.800 34.310,246.800 34.200 C 246.800 33.742,246.075 34.054,245.398 34.802 M146.080 42.080 C 145.496 42.664,145.458 43.200,146.000 43.200 C 146.220 43.200,146.355 42.975,146.300 42.700 C 146.245 42.425,146.425 42.245,146.700 42.300 C 146.975 42.355,147.200 42.220,147.200 42.000 C 147.200 41.458,146.664 41.496,146.080 42.080 M155.600 41.956 C 155.600 42.151,155.915 42.286,156.300 42.256 C 156.689 42.225,156.951 42.436,156.890 42.730 C 156.830 43.021,156.954 43.152,157.166 43.021 C 157.377 42.890,157.736 43.102,157.963 43.492 C 158.190 43.881,158.381 43.975,158.388 43.700 C 158.405 43.012,156.933 41.600,156.200 41.600 C 155.870 41.600,155.600 41.760,155.600 41.956 M138.598 45.602 C 137.612 46.692,138.122 47.078,139.167 46.033 C 139.625 45.575,140.000 45.110,140.000 45.000 C 140.000 44.542,139.275 44.854,138.598 45.602 M166.667 48.733 C 166.772 49.137,167.115 49.467,167.429 49.467 C 168.126 49.467,168.158 49.118,167.520 48.480 C 166.821 47.781,166.447 47.892,166.667 48.733 M286.595 117.200 C 286.595 154.930,286.642 170.365,286.700 151.500 C 286.757 132.635,286.757 101.765,286.700 82.900 C 286.642 64.035,286.595 79.470,286.595 117.200 M132.584 50.027 C 132.439 50.261,132.416 50.549,132.533 50.667 C 132.820 50.953,133.600 50.448,133.600 49.976 C 133.600 49.465,132.909 49.499,132.584 50.027 M174.493 62.400 C 174.493 63.170,174.575 63.485,174.676 63.100 C 174.776 62.715,174.776 62.085,174.676 61.700 C 174.575 61.315,174.493 61.630,174.493 62.400 M308.900 71.065 C 308.625 71.176,308.400 71.454,308.400 71.682 C 308.400 71.917,308.694 71.859,309.075 71.549 C 309.666 71.068,309.717 71.087,309.487 71.700 C 309.130 72.653,309.472 72.586,310.000 71.600 C 310.440 70.777,310.065 70.595,308.900 71.065 M304.400 75.400 C 303.995 75.888,304.015 76.000,304.508 76.000 C 304.842 76.000,305.218 75.730,305.345 75.400 C 305.471 75.070,305.423 74.800,305.236 74.800 C 305.050 74.800,304.674 75.070,304.400 75.400 M301.800 78.000 C 301.097 78.776,301.101 78.800,301.938 78.800 C 302.533 78.800,302.800 78.553,302.800 78.000 C 302.800 77.560,302.738 77.200,302.662 77.200 C 302.586 77.200,302.198 77.560,301.800 78.000 M340.203 87.595 C 340.066 87.816,340.215 87.893,340.539 87.768 C 341.210 87.511,341.769 88.203,341.388 88.819 C 341.214 89.102,340.911 89.069,340.464 88.719 C 339.869 88.254,339.857 88.273,340.353 88.905 C 340.755 89.417,341.045 89.495,341.414 89.188 C 341.778 88.886,341.981 88.914,342.130 89.283 C 342.296 89.699,342.343 89.697,342.368 89.274 C 342.455 87.823,340.837 86.569,340.203 87.595 M342.596 174.400 C 342.596 219.390,342.643 237.795,342.700 215.300 C 342.757 192.805,342.757 155.995,342.700 133.500 C 342.643 111.005,342.596 129.410,342.596 174.400 M231.500 169.482 C 231.995 169.578,232.805 169.578,233.300 169.482 C 233.795 169.387,233.390 169.309,232.400 169.309 C 231.410 169.309,231.005 169.387,231.500 169.482 M183.280 175.280 C 183.016 175.544,182.800 176.024,182.800 176.347 C 182.800 176.669,182.935 176.798,183.100 176.633 C 183.265 176.468,183.400 176.123,183.400 175.867 C 183.400 175.610,183.610 175.400,183.867 175.400 C 184.123 175.400,184.468 175.265,184.633 175.100 C 184.798 174.935,184.669 174.800,184.347 174.800 C 184.024 174.800,183.544 175.016,183.280 175.280 M84.800 188.738 C 84.800 188.924,85.160 189.402,85.600 189.800 C 86.399 190.523,86.615 190.226,86.157 189.033 C 85.906 188.379,84.800 188.139,84.800 188.738 M60.977 191.367 C 60.550 191.679,60.336 192.069,60.501 192.234 C 60.665 192.399,60.800 192.313,60.800 192.043 C 60.800 191.773,60.983 191.666,61.207 191.804 C 61.430 191.942,61.492 192.251,61.345 192.489 C 61.188 192.742,61.262 192.809,61.521 192.649 C 61.765 192.498,61.852 192.081,61.715 191.722 C 61.554 191.304,61.623 191.167,61.904 191.341 C 62.147 191.491,62.458 191.430,62.596 191.207 C 62.968 190.605,61.871 190.714,60.977 191.367 M102.800 203.400 C 102.800 203.730,103.092 204.000,103.449 204.000 C 103.980 204.000,104.008 203.891,103.600 203.400 C 103.326 203.070,103.034 202.800,102.951 202.800 C 102.868 202.800,102.800 203.070,102.800 203.400 M124.900 217.865 C 124.625 217.976,124.400 218.254,124.400 218.482 C 124.400 218.755,124.585 218.745,124.937 218.452 C 125.232 218.207,125.592 218.125,125.737 218.270 C 125.882 218.415,126.000 218.323,126.000 218.067 C 126.000 217.578,125.733 217.529,124.900 217.865 M118.667 223.467 C 118.187 223.946,118.387 224.491,118.961 224.270 C 119.778 223.957,120.071 224.431,119.497 225.138 C 119.077 225.655,119.116 225.706,119.751 225.468 C 120.229 225.288,120.665 225.408,120.951 225.798 C 121.319 226.299,121.412 226.174,121.467 225.105 C 121.521 224.060,121.467 223.960,121.196 224.600 C 121.009 225.040,120.844 225.188,120.828 224.929 C 120.768 223.913,119.248 222.885,118.667 223.467 M218.931 227.202 C 218.012 227.392,216.747 227.814,216.119 228.138 C 215.491 228.463,213.993 228.995,212.789 229.320 C 210.687 229.889,207.551 231.443,202.599 234.373 C 201.318 235.130,198.379 237.675,196.039 240.053 C 190.624 245.556,190.206 246.046,188.980 248.315 C 188.420 249.352,187.716 250.650,187.415 251.200 C 185.731 254.280,184.352 257.664,183.994 259.600 C 183.771 260.810,183.197 262.880,182.719 264.200 C 181.447 267.716,181.437 278.236,182.703 281.800 C 183.172 283.120,183.776 285.362,184.046 286.783 C 184.316 288.204,184.943 289.965,185.440 290.696 C 185.936 291.428,186.462 292.606,186.609 293.313 C 186.756 294.021,187.373 295.233,187.981 296.006 C 188.589 296.779,189.201 297.769,189.341 298.206 C 189.481 298.643,190.137 299.630,190.797 300.400 C 191.458 301.170,191.999 301.927,191.999 302.083 C 192.002 303.012,202.009 312.000,203.041 312.000 C 203.333 312.000,204.166 312.522,204.893 313.159 C 205.619 313.797,207.001 314.531,207.965 314.791 C 208.928 315.050,210.185 315.600,210.758 316.013 C 211.331 316.425,213.014 317.039,214.498 317.375 C 215.982 317.712,217.872 318.278,218.698 318.633 C 222.065 320.081,235.911 320.094,238.700 318.652 C 239.403 318.288,241.360 317.726,243.049 317.403 C 244.738 317.080,246.433 316.533,246.815 316.186 C 247.197 315.840,248.475 315.192,249.655 314.745 C 250.835 314.299,252.070 313.697,252.400 313.407 C 252.730 313.118,253.659 312.515,254.464 312.068 C 255.268 311.621,256.328 310.927,256.818 310.527 C 260.036 307.899,262.958 305.096,264.456 303.200 C 267.795 298.973,269.200 297.018,269.200 296.597 C 269.200 296.364,269.808 295.230,270.550 294.077 C 271.293 292.924,272.022 291.220,272.171 290.290 C 272.319 289.361,272.718 288.176,273.057 287.657 C 274.009 286.203,273.227 285.817,269.016 285.663 C 263.219 285.450,263.600 286.406,263.600 272.073 C 263.600 257.747,263.400 258.400,267.794 258.400 C 272.083 258.400,273.138 256.699,271.153 252.985 C 270.688 252.113,269.953 250.703,269.520 249.851 C 269.088 248.999,268.209 247.577,267.567 246.691 C 266.925 245.805,266.400 244.857,266.400 244.585 C 266.400 241.713,250.838 230.287,245.662 229.360 C 244.858 229.216,243.120 228.629,241.800 228.057 C 239.224 226.939,223.111 226.337,218.931 227.202 M241.000 228.513 C 242.320 229.087,244.421 229.756,245.669 230.000 C 246.917 230.244,248.147 230.695,248.401 231.001 C 248.655 231.307,249.704 231.872,250.732 232.256 C 251.759 232.639,253.226 233.459,253.991 234.077 C 254.756 234.694,255.616 235.200,255.903 235.200 C 256.464 235.200,257.990 236.537,261.380 240.000 C 262.565 241.210,264.000 242.675,264.569 243.256 C 265.138 243.836,265.858 244.920,266.169 245.664 C 266.480 246.408,267.102 247.349,267.552 247.756 C 268.002 248.164,268.583 249.150,268.844 249.948 C 269.105 250.747,269.742 252.027,270.259 252.793 C 270.882 253.715,271.200 254.762,271.200 255.893 L 271.200 257.600 268.254 257.600 C 265.879 257.600,265.104 257.761,264.254 258.429 L 263.200 259.258 263.200 271.980 C 263.200 286.913,262.764 285.699,268.240 286.013 C 270.286 286.130,272.043 286.310,272.144 286.413 C 272.579 286.853,271.012 292.286,270.152 293.318 C 269.640 293.933,269.002 295.167,268.735 296.060 C 268.467 296.953,268.005 297.777,267.707 297.891 C 267.409 298.005,266.810 298.796,266.375 299.649 C 265.940 300.502,265.410 301.200,265.197 301.200 C 264.984 301.200,264.360 301.912,263.811 302.783 C 262.727 304.500,254.715 311.600,253.862 311.600 C 253.575 311.600,252.942 312.023,252.455 312.541 C 251.969 313.058,250.813 313.703,249.886 313.974 C 248.959 314.244,247.545 314.912,246.744 315.457 C 245.820 316.086,244.311 316.586,242.611 316.827 C 241.139 317.035,239.004 317.610,237.867 318.103 C 234.812 319.429,222.370 319.459,219.600 318.148 C 218.610 317.679,216.540 317.082,215.000 316.821 C 213.281 316.529,211.872 316.038,211.350 315.549 C 210.882 315.112,209.610 314.519,208.523 314.233 C 207.437 313.946,206.073 313.236,205.492 312.656 C 204.911 312.075,204.175 311.600,203.856 311.600 C 203.537 311.600,202.522 310.970,201.600 310.200 C 200.678 309.430,199.773 308.800,199.589 308.800 C 199.142 308.800,194.800 304.514,194.800 304.073 C 194.800 303.883,194.350 303.523,193.800 303.273 C 193.250 303.022,192.800 302.560,192.800 302.246 C 192.800 301.933,192.181 300.935,191.424 300.029 C 190.667 299.123,189.927 297.981,189.779 297.491 C 189.631 297.001,189.102 296.150,188.604 295.600 C 188.106 295.050,187.392 293.657,187.019 292.505 C 186.645 291.352,186.161 290.300,185.945 290.166 C 185.334 289.788,184.839 288.205,184.353 285.072 C 184.109 283.492,183.569 281.338,183.154 280.285 C 182.069 277.531,182.075 269.069,183.164 265.904 C 183.585 264.682,184.146 262.269,184.412 260.541 C 184.711 258.600,185.248 256.865,185.817 256.000 C 186.324 255.230,186.934 253.856,187.172 252.947 C 187.411 252.037,187.903 251.047,188.266 250.747 C 188.630 250.446,189.248 249.480,189.641 248.600 C 190.472 246.736,191.411 245.612,195.900 241.110 C 200.533 236.463,201.948 235.200,202.520 235.200 C 202.794 235.200,203.644 234.687,204.409 234.060 C 205.174 233.433,206.464 232.702,207.275 232.437 C 208.086 232.172,209.192 231.606,209.733 231.181 C 210.274 230.756,211.935 230.125,213.425 229.780 C 214.914 229.434,216.681 228.868,217.351 228.522 C 220.694 226.793,237.030 226.787,241.000 228.513 M52.769 239.143 C 53.251 240.043,54.800 241.060,54.800 240.476 C 54.800 240.111,53.800 239.151,52.860 238.613 C 52.425 238.363,52.407 238.466,52.769 239.143 M56.475 243.848 C 56.847 243.958,57.242 244.353,57.352 244.725 C 57.499 245.214,57.532 245.181,57.472 244.605 C 57.425 244.138,57.062 243.775,56.595 243.728 C 56.019 243.668,55.986 243.701,56.475 243.848 M222.484 247.976 C 221.760 248.157,220.860 248.572,220.484 248.898 C 220.108 249.223,218.939 249.775,217.887 250.125 C 214.684 251.189,208.988 256.137,207.622 259.042 C 207.166 260.013,206.456 261.144,206.046 261.554 C 205.608 261.992,205.105 263.419,204.828 265.007 C 204.569 266.496,204.099 268.454,203.784 269.357 C 203.103 271.312,203.036 273.916,203.627 275.470 C 203.861 276.087,204.326 278.034,204.659 279.796 C 205.030 281.758,205.617 283.465,206.175 284.200 C 206.675 284.860,207.216 285.814,207.376 286.321 C 207.724 287.421,213.225 293.084,214.810 293.974 C 215.424 294.318,216.382 294.928,216.938 295.330 C 217.495 295.731,219.046 296.315,220.386 296.628 C 221.726 296.940,223.304 297.512,223.893 297.898 C 225.451 298.919,232.532 298.892,234.075 297.860 C 234.666 297.464,236.283 296.876,237.667 296.553 C 239.052 296.231,240.548 295.635,240.992 295.230 C 241.436 294.825,242.424 294.178,243.187 293.792 C 245.016 292.866,250.211 287.456,250.805 285.858 C 251.476 284.053,251.910 283.166,252.815 281.752 C 254.501 279.116,254.370 266.047,252.632 263.485 C 252.139 262.759,251.529 261.571,251.276 260.847 C 250.572 258.827,246.260 253.792,244.378 252.793 C 243.840 252.507,243.168 251.947,242.885 251.548 C 242.602 251.149,241.522 250.569,240.485 250.260 C 239.448 249.950,237.880 249.270,237.000 248.749 C 235.276 247.726,225.549 247.209,222.484 247.976 M236.993 249.631 C 238.310 250.274,239.677 250.800,240.030 250.800 C 242.264 250.800,249.046 257.748,251.298 262.344 C 253.759 267.368,254.192 278.721,252.033 281.641 C 251.550 282.295,250.896 283.562,250.580 284.457 C 249.607 287.215,245.461 291.791,242.600 293.266 C 241.720 293.719,240.640 294.417,240.200 294.817 C 239.760 295.216,238.320 295.816,237.000 296.151 C 235.680 296.485,233.520 297.062,232.200 297.433 C 228.888 298.364,219.503 296.639,217.278 294.691 C 216.905 294.364,216.052 293.819,215.383 293.481 C 213.221 292.387,208.979 287.794,207.292 284.721 C 203.702 278.179,203.476 265.983,206.866 261.717 C 207.490 260.932,208.000 260.059,208.000 259.777 C 208.000 258.924,212.230 254.268,213.971 253.206 C 214.867 252.659,215.600 252.087,215.600 251.934 C 215.600 251.782,216.605 251.282,217.833 250.822 C 219.060 250.363,220.635 249.692,221.333 249.331 C 224.648 247.614,233.195 247.778,236.993 249.631 M61.800 250.000 C 62.198 250.440,62.586 250.800,62.662 250.800 C 62.738 250.800,62.800 250.440,62.800 250.000 C 62.800 249.447,62.533 249.200,61.938 249.200 C 61.101 249.200,61.097 249.224,61.800 250.000 M62.800 253.151 C 62.800 253.398,62.991 253.600,63.224 253.600 C 63.457 253.600,63.536 253.780,63.400 254.000 C 63.264 254.220,63.343 254.400,63.576 254.400 C 64.188 254.400,64.097 253.778,63.400 253.200 C 62.985 252.856,62.800 252.841,62.800 253.151 M340.346 259.634 C 340.112 259.778,339.984 260.175,340.061 260.516 C 340.177 261.035,340.380 260.992,341.299 260.254 C 342.392 259.377,341.597 258.860,340.346 259.634 M340.000 264.949 C 340.000 265.579,340.170 265.942,340.400 265.800 C 340.620 265.664,340.800 265.833,340.800 266.176 C 340.800 266.519,340.974 266.800,341.187 266.800 C 341.401 266.800,341.476 266.485,341.355 266.100 C 341.167 265.502,341.227 265.513,341.767 266.176 C 342.115 266.604,342.400 266.772,342.400 266.551 C 342.400 266.330,341.860 265.632,341.200 265.000 L 340.000 263.850 340.000 264.949 M78.800 273.700 C 78.800 274.494,79.882 275.851,80.234 275.499 C 80.399 275.335,80.313 275.200,80.043 275.200 C 79.773 275.200,79.666 275.017,79.804 274.793 C 79.942 274.570,80.251 274.508,80.489 274.655 C 80.742 274.812,80.809 274.738,80.649 274.479 C 80.498 274.235,80.081 274.148,79.722 274.285 C 79.304 274.446,79.167 274.377,79.341 274.096 C 79.491 273.853,79.430 273.542,79.207 273.404 C 78.983 273.266,78.800 273.399,78.800 273.700 M342.555 278.200 C 342.556 281.060,342.620 282.178,342.697 280.683 C 342.774 279.189,342.774 276.849,342.696 275.483 C 342.618 274.118,342.555 275.340,342.555 278.200 M87.107 284.887 C 87.214 285.297,87.864 285.904,88.551 286.235 C 89.480 286.684,89.624 286.697,89.114 286.285 C 88.634 285.898,88.554 285.606,88.849 285.311 C 89.321 284.839,88.671 284.272,87.563 284.190 C 87.116 284.157,86.973 284.375,87.107 284.887 M95.226 295.297 C 95.491 295.879,95.980 296.460,96.311 296.587 C 97.211 296.932,97.132 296.721,95.879 295.419 L 94.743 294.237 95.226 295.297 M103.549 305.928 C 104.413 307.141,105.200 307.587,105.200 306.862 C 105.200 306.504,104.186 305.544,103.221 304.989 C 102.900 304.803,103.045 305.220,103.549 305.928 M113.600 318.111 C 113.600 318.187,114.140 318.649,114.800 319.137 L 116.000 320.024 116.000 319.179 C 116.000 318.673,115.799 318.405,115.500 318.513 C 115.225 318.611,114.685 318.530,114.300 318.332 C 113.915 318.134,113.600 318.034,113.600 318.111 M332.667 322.067 C 332.263 322.507,332.037 322.971,332.164 323.098 C 332.434 323.367,334.000 322.036,334.000 321.538 C 334.000 320.992,333.454 321.208,332.667 322.067 M116.400 325.508 C 116.400 325.732,116.685 326.024,117.033 326.157 C 117.903 326.491,118.000 326.468,118.000 325.933 C 118.000 325.677,117.882 325.585,117.737 325.730 C 117.592 325.875,117.232 325.793,116.937 325.548 C 116.599 325.267,116.400 325.253,116.400 325.508 M330.500 326.978 C 329.065 328.327,328.789 329.048,329.943 328.430 C 330.653 328.051,332.208 326.027,331.932 325.843 C 331.859 325.795,331.215 326.305,330.500 326.978 M119.035 330.000 C 119.308 331.001,119.870 331.582,120.576 331.594 C 120.784 331.597,120.671 331.375,120.326 331.100 C 119.981 330.825,119.488 330.240,119.231 329.800 C 118.803 329.071,118.786 329.088,119.035 330.000 M320.216 343.431 C 319.805 344.060,319.309 344.374,318.949 344.236 C 318.624 344.111,318.462 344.176,318.588 344.380 C 318.714 344.584,318.498 344.952,318.108 345.199 C 317.247 345.743,317.820 345.566,319.256 344.843 C 319.837 344.551,320.508 343.882,320.747 343.356 C 321.319 342.102,321.063 342.138,320.216 343.431 M317.384 346.827 C 317.239 347.061,317.216 347.349,317.333 347.467 C 317.620 347.753,318.400 347.248,318.400 346.776 C 318.400 346.265,317.709 346.299,317.384 346.827 M133.692 348.475 C 133.939 349.217,134.800 349.340,134.800 348.633 C 134.800 348.285,134.515 348.000,134.167 348.000 C 133.818 348.000,133.605 348.214,133.692 348.475 M136.400 351.400 C 136.674 351.730,137.026 352.000,137.182 352.000 C 137.339 352.000,137.467 351.730,137.467 351.400 C 137.467 351.070,137.115 350.800,136.684 350.800 C 136.034 350.800,135.986 350.901,136.400 351.400 M138.892 353.675 C 139.139 354.417,140.000 354.540,140.000 353.833 C 140.000 353.485,139.715 353.200,139.367 353.200 C 139.018 353.200,138.805 353.414,138.892 353.675 M304.432 359.100 C 304.414 359.375,304.175 359.555,303.900 359.500 C 303.625 359.445,303.452 359.647,303.516 359.949 C 303.592 360.305,303.409 360.412,302.996 360.254 C 302.645 360.119,302.459 360.172,302.582 360.370 C 302.705 360.569,302.579 360.835,302.302 360.962 C 302.026 361.089,302.250 361.085,302.800 360.953 C 304.098 360.643,304.949 359.820,304.678 359.139 C 304.523 358.750,304.454 358.739,304.432 359.100 M151.600 364.505 C 151.600 364.837,152.063 365.411,152.629 365.782 C 153.619 366.431,153.643 366.428,153.251 365.696 C 152.603 364.484,151.600 363.761,151.600 364.505 M292.000 367.316 C 292.000 367.966,292.101 368.014,292.600 367.600 C 292.930 367.326,293.200 366.974,293.200 366.818 C 293.200 366.661,292.930 366.533,292.600 366.533 C 292.270 366.533,292.000 366.885,292.000 367.316 M277.700 376.082 C 277.755 376.347,277.590 376.572,277.333 376.582 C 276.633 376.609,276.175 377.200,276.853 377.200 C 277.485 377.200,278.400 376.442,278.400 375.920 C 278.400 375.744,278.220 375.600,278.000 375.600 C 277.780 375.600,277.645 375.817,277.700 376.082 M270.849 377.638 C 271.313 377.933,271.311 377.989,270.833 377.994 C 270.522 377.997,270.382 378.116,270.524 378.257 C 270.665 378.398,271.055 378.286,271.390 378.008 C 272.491 377.095,272.027 378.147,270.900 379.120 L 269.800 380.070 271.199 379.314 C 273.054 378.309,273.219 377.409,271.559 377.341 C 270.700 377.306,270.473 377.401,270.849 377.638 M263.019 381.181 C 261.733 382.522,262.053 382.803,263.553 381.650 C 264.077 381.247,264.434 380.702,264.346 380.439 C 264.251 380.152,263.720 380.449,263.019 381.181 M252.687 384.066 C 251.763 384.951,251.710 385.096,252.374 384.923 C 253.274 384.687,254.147 383.789,253.938 383.313 C 253.862 383.141,253.299 383.480,252.687 384.066 M212.400 385.511 C 212.400 386.251,213.907 387.603,214.700 387.575 C 215.259 387.554,215.228 387.480,214.543 387.203 C 214.071 387.013,213.396 386.444,213.043 385.940 C 212.689 385.435,212.400 385.242,212.400 385.511 M234.211 385.988 C 233.816 386.424,233.367 386.703,233.213 386.608 C 233.059 386.513,232.933 386.680,232.933 386.979 C 232.933 387.699,234.656 386.952,234.987 386.089 C 235.345 385.157,235.003 385.113,234.211 385.988 M230.800 387.600 L 229.800 387.920 230.900 387.960 C 231.505 387.982,232.000 387.820,232.000 387.600 C 232.000 387.380,231.955 387.218,231.900 387.240 C 231.845 387.262,231.350 387.424,230.800 387.600 M216.500 387.876 C 216.885 387.976,217.515 387.976,217.900 387.876 C 218.285 387.775,217.970 387.693,217.200 387.693 C 216.430 387.693,216.115 387.775,216.500 387.876 M223.107 387.890 C 223.826 387.979,224.906 387.977,225.507 387.886 C 226.108 387.795,225.520 387.722,224.200 387.724 C 222.880 387.726,222.388 387.801,223.107 387.890 " stroke="none" fill="#44d4c4" fill-rule="evenodd"></path></g></svg>